<svg width="650" height="476" viewBox="0 0 650 476" fill="none" xmlns="http://www.w3.org/2000/svg">
<g clip-path="url(#clip0_8_31)">
<path opacity="0.1" d="M216.098 475.732C247.753 475.732 273.414 471.471 273.414 466.215C273.414 460.959 247.753 456.698 216.098 456.698C184.444 456.698 158.782 460.959 158.782 466.215C158.782 471.471 184.444 475.732 216.098 475.732Z" fill="#71A5FF"/>
<path opacity="0.1" d="M527.657 476C567.157 476 599.178 471.739 599.178 466.483C599.178 461.227 567.157 456.966 527.657 456.966C488.157 456.966 456.136 461.227 456.136 466.483C456.136 471.739 488.157 476 527.657 476Z" fill="#71A5FF"/>
<path opacity="0.1" d="M8.14091 205.666H67.8388V289.787H12.5113C12.3643 290.651 12.2231 291.521 12.0702 292.39H67.8388V360.232C67.7388 360.202 67.6505 360.165 67.5564 360.129C65.98 359.484 64.4153 358.803 62.8507 358.073L61.8507 357.605C60.2822 356.839 58.7136 356.028 57.145 355.173C56.598 354.875 56.0509 354.564 55.5098 354.248C46.8018 349.205 38.891 342.815 32.0518 335.299C31.8518 335.099 31.6636 334.886 31.4636 334.691C30.5107 333.621 29.5754 332.538 28.6696 331.432L27.6696 330.215C26.5991 328.859 25.5638 327.467 24.558 326.056C24.4109 325.849 24.2697 325.642 24.1168 325.448C20.026 319.584 16.6294 313.234 13.9995 306.535C13.9172 306.334 13.8466 306.116 13.7701 305.927C12.9623 303.778 12.2466 301.609 11.6231 299.42C11.3526 298.502 11.0937 297.596 10.8702 296.641C10.7879 296.361 10.7173 296.088 10.6526 295.814C7.31152 282.332 6.91742 268.327 6.91742 254.419C6.91742 252.796 6.91742 251.166 6.91742 249.554C6.91742 243.929 6.98212 238.268 7.07624 232.612C7.07624 231.146 7.13506 229.687 7.16447 228.215C7.24682 224.481 7.36446 220.748 7.5174 217.014C7.55269 215.974 7.59975 214.94 7.65269 213.906C7.65269 213.31 7.6821 212.714 7.74092 212.118C7.88209 209.953 7.99973 207.807 8.14091 205.666Z" fill="#71A5FF"/>
<path opacity="0.1" d="M67.8387 112.004H35.0928C40.4159 103.39 46.2319 95.113 52.5098 87.2166C57.3744 81.0381 62.5095 75.0177 67.8387 69.2162V112.004Z" fill="#71A5FF"/>
<path opacity="0.1" d="M67.8387 114.606V203.063H8.3291C8.3291 202.808 8.37028 202.547 8.38792 202.291C8.44086 201.592 8.4938 200.893 8.55262 200.199C8.61732 199.384 8.68791 198.563 8.76438 197.767C8.84085 196.97 8.9232 195.997 9.01143 195.115C9.09966 194.234 9.18201 193.34 9.28201 192.458C9.382 191.576 9.47024 190.694 9.57611 189.819C9.68199 188.943 9.77611 188.055 9.88787 187.179C9.9761 186.45 10.0702 185.726 10.1643 184.996C10.2996 183.969 10.4408 182.935 10.5937 181.913C10.5937 181.761 10.6349 181.603 10.6584 181.457C11.732 173.978 13.1949 166.564 15.0406 159.248C16.9727 151.574 19.4398 144.054 22.4227 136.748C25.593 129.105 29.3049 121.714 33.5282 114.637L67.8387 114.606Z" fill="#71A5FF"/>
<path opacity="0.1" d="M82.0911 205.66V289.787H209.598V205.66H82.0911ZM82.0911 292.384V364.629C82.8205 364.787 83.544 364.939 84.2616 365.067C85.2381 365.261 86.2086 365.438 87.2027 365.59C87.3909 365.62 87.585 365.651 87.7909 365.669C88.1791 365.736 88.5791 365.79 88.9673 365.845C89.9497 365.985 90.9261 366.101 91.9084 366.192C92.3731 366.24 92.8437 366.283 93.3142 366.319L94.4495 366.411C95.0671 366.459 95.6789 366.496 96.2847 366.514C96.6612 366.514 97.0376 366.551 97.4259 366.563C97.72 366.563 98.0141 366.563 98.3199 366.563C98.6258 366.563 99.0611 366.563 99.4317 366.563C99.9375 366.563 100.443 366.563 100.943 366.563H101.62C102.126 366.563 102.632 366.563 103.132 366.514H103.167C103.514 366.514 103.867 366.514 104.22 366.465C104.318 366.471 104.416 366.471 104.514 366.465C104.808 366.465 105.102 366.465 105.384 366.423H105.59L107.561 366.265C108.208 366.204 108.861 366.125 109.52 366.052L110.861 365.888C116.317 365.097 121.712 363.911 127.007 362.336C138.901 358.906 150.536 354.108 162.424 350.593C177.794 346.063 194.775 343.837 209.628 349.377V292.384H82.0911ZM209.598 112.004V0.00608105C195.638 -0.150281 181.716 1.53774 168.17 5.02916C135.883 13.4151 106.914 31.604 82.0911 54.8342V111.998H88.4909V114.594H82.0911V203.063H209.598V114.6H114.766V112.004H209.598ZM373.375 74.1724C365.387 73.8805 357.446 71.2656 350.264 67.2277C336.529 59.5046 325.559 47.5793 313.3 37.5149C287.831 16.553 256.244 3.90413 223.839 0.766231V112.004H405.862L406.315 111.511L373.375 74.1724ZM389.956 71.1318L407.538 91.0782V65.902C401.65 66.6561 396.491 68.45 389.98 71.1075L389.956 71.1318ZM407.538 382.568V292.384H370.075C369.975 292.001 369.875 291.612 369.757 291.223C369.869 291.612 369.963 292.001 370.069 292.384H223.862V357.605C225.251 358.669 226.621 359.788 227.98 360.925C229.445 362.142 230.892 363.425 232.344 364.684L233.809 365.936C234.509 366.544 235.215 367.153 235.927 367.724C237.338 368.908 238.764 370.076 240.203 371.227C240.915 371.835 241.644 372.382 242.368 372.954C253.854 382.033 265.97 390.226 278.619 397.467C281.454 399.089 284.315 400.672 287.201 402.217C289.125 403.232 291.06 404.242 293.001 405.221C295.919 406.693 298.86 408.111 301.824 409.478C329.156 422.162 358.058 430.866 387.704 435.341C394.288 436.347 400.897 437.137 407.532 437.713V382.562H408.121L407.538 382.568ZM223.862 114.6V203.063H407.562V114.6H223.862ZM223.862 205.66V289.787H407.562V205.66H223.862ZM421.82 65.7925V93.8755L444.26 68.4196C436.825 67.179 429.345 66.2932 421.82 65.7621V65.7925ZM421.82 205.691V289.787H600.49V205.66L421.82 205.691ZM599.837 389.246L600.466 292.384H421.82V438.68C433.328 439.179 444.855 439.037 456.348 438.254H456.548C462.038 437.897 467.503 437.378 472.942 436.697H473.065C502.082 433.206 530.455 425.379 557.297 413.461M634.942 219.513C634.271 217.877 633.571 216.254 632.859 214.648C631.53 211.608 630.124 208.652 628.677 205.697H614.737V289.787H649.982C649.965 265.974 644.135 241.649 634.959 219.483L634.942 219.513ZM614.737 292.415V375.727C624.666 365.888 633.054 354.631 639.094 341.764C646.359 326.269 649.682 309.491 649.953 292.402L614.737 292.415ZM614.737 181.177V203.07H627.371C623.549 195.533 619.337 188.215 614.754 181.147L614.737 181.177ZM493.564 82.2969C492.635 81.932 491.706 81.5611 490.77 81.2023C480.907 77.4364 470.827 74.3047 460.589 71.8251L426.249 110.787L425.59 111.511L426.032 112.01H548.251C531.229 99.8962 512.878 89.9121 493.582 82.2665L493.564 82.2969ZM551.833 114.631H424.326L421.82 117.002V203.063H443.784H443.819H600.514V161.377C586.339 143.654 569.979 127.928 551.851 114.6L551.833 114.631Z" fill="#71A5FF"/>
<path opacity="0.1" d="M67.8387 159.224V203.063H8.3291C8.3291 202.808 8.37028 202.547 8.38792 202.291C8.44086 201.592 8.4938 200.892 8.55262 200.199C8.61732 199.384 8.68791 198.563 8.76438 197.767C8.84085 196.97 8.9232 195.997 9.01143 195.115C9.09966 194.234 9.18201 193.34 9.28201 192.458C9.382 191.576 9.47024 190.694 9.57611 189.819C9.68199 188.943 9.77611 188.055 9.88787 187.179C9.9761 186.45 10.0702 185.726 10.1643 184.996C10.2996 183.969 10.4408 182.935 10.5937 181.913C10.5937 181.761 10.6349 181.603 10.6584 181.457C11.732 173.978 13.1949 166.564 15.0406 159.248L67.8387 159.224Z" fill="#71A5FF"/>
<path opacity="0.1" d="M8.14091 205.666H67.8388V289.787H12.5113C12.3643 290.651 12.2231 291.521 12.0702 292.39H67.8388V360.232C67.7388 360.202 67.6505 360.165 67.5564 360.129C65.98 359.484 64.4153 358.803 62.8507 358.073L61.8507 357.605C60.2822 356.839 58.7136 356.028 57.145 355.173C56.598 354.875 56.0509 354.564 55.5098 354.248C46.8018 349.205 38.891 342.815 32.0518 335.299C31.8518 335.099 31.6636 334.886 31.4636 334.691C30.5107 333.621 29.5754 332.538 28.6696 331.432L27.6696 330.215C26.5991 328.859 25.5638 327.467 24.558 326.056C24.4109 325.849 24.2697 325.642 24.1168 325.448C20.026 319.584 16.6294 313.234 13.9995 306.535C13.9172 306.334 13.8466 306.116 13.7701 305.927C12.9623 303.778 12.2466 301.609 11.6231 299.42C11.3526 298.502 11.0937 297.596 10.8702 296.641C10.7879 296.361 10.7173 296.088 10.6526 295.814C7.31152 282.332 6.91742 268.327 6.91742 254.419C6.91742 252.796 6.91742 251.166 6.91742 249.554C6.91742 243.929 6.98212 238.268 7.07624 232.612C7.07624 231.146 7.13506 229.687 7.16447 228.215C7.24682 224.481 7.36446 220.748 7.5174 217.014C7.55269 215.974 7.59975 214.94 7.65269 213.906C7.65269 213.31 7.6821 212.714 7.74092 212.118C7.88209 209.953 7.99973 207.807 8.14091 205.666Z" fill="#71A5FF"/>
<path opacity="0.1" d="M126.978 127.267V203.064H82.0911V127.267H88.4909V101.605H114.761V127.267H126.978Z" fill="#71A5FF"/>
<path opacity="0.1" d="M126.978 205.66H82.097V289.781H126.978V205.66Z" fill="#71A5FF"/>
<path opacity="0.1" d="M82.0911 292.39H126.978V362.324C121.683 363.897 116.287 365.082 110.831 365.869L109.49 366.04C108.831 366.119 108.178 366.186 107.531 366.253C106.884 366.319 106.214 366.368 105.561 366.411H105.355C105.073 366.411 104.767 366.447 104.49 366.453H104.19C103.837 366.453 103.484 366.49 103.132 366.502C102.632 366.532 102.132 366.538 101.62 366.544C101.402 366.544 101.196 366.544 100.979 366.544C100.473 366.544 99.9728 366.544 99.467 366.544H98.3552C98.0552 366.544 97.767 366.544 97.4553 366.544L96.32 366.502C95.7318 366.502 95.0965 366.435 94.4848 366.392L93.3554 366.307L91.9496 366.174C90.9614 366.082 89.9791 365.967 89.0085 365.827L87.8321 365.657L87.2439 365.571C86.2616 365.413 85.291 365.243 84.3028 365.048C83.5793 364.921 82.8617 364.763 82.1323 364.611L82.0911 292.39Z" fill="#71A5FF"/>
<path opacity="0.1" d="M407.562 118.316H370.551V203.057H407.562V118.316Z" fill="#71A5FF"/>
<path opacity="0.1" d="M407.568 205.66V289.788H223.862V253.501H321.712V274.907H370.551V205.66H407.568Z" fill="#71A5FF"/>
<path opacity="0.1" d="M408.15 382.587H407.562V437.774C400.934 437.194 394.327 436.405 387.739 435.408C358.079 430.919 329.165 422.196 301.824 409.49C293.931 405.817 286.197 401.807 278.625 397.461C265.976 390.217 253.858 382.024 242.368 372.948C239.482 370.661 236.633 368.322 233.821 365.93C231.874 364.27 229.939 362.567 227.98 360.913C226.621 359.776 225.251 358.657 223.862 357.587V292.39H370.063C369.963 292.001 369.863 291.612 369.757 291.229C369.869 291.612 369.975 292.001 370.075 292.39H407.562V382.55C407.762 382.556 407.956 382.575 408.15 382.587Z" fill="#71A5FF"/>
<path opacity="0.1" d="M504.088 112.004H479.971V104.256H490.782V81.178C491.719 81.5307 492.653 81.8935 493.582 82.2665V104.256H504.088V112.004Z" fill="#71A5FF"/>
<path opacity="0.1" d="M562.191 203.063H443.796C443.796 203.063 443.796 203.063 443.837 203.094L443.784 203.063H421.82V118.322H428.043V180.958H456.484V143.863H479.977V114.606H504.094V143.887H527.587V180.983H562.191V203.063Z" fill="#71A5FF"/>
<path opacity="0.1" d="M421.82 205.66V289.787H562.191V205.66H421.82ZM600.296 388.814L600.49 322.225H562.191V292.427H421.82V438.68C433.328 439.179 444.855 439.037 456.348 438.254H456.548C462.038 437.897 467.503 437.378 472.942 436.697H473.065C502.082 433.206 530.455 425.379 557.298 413.461" fill="#71A5FF"/>
<path opacity="0.1" d="M617.23 292.39H649.976C649.688 309.472 646.371 326.25 639.112 341.745C633.071 354.619 624.677 365.876 614.76 375.709V322.194H617.23V292.39Z" fill="#71A5FF"/>
<path opacity="0.1" d="M649.994 289.787H617.23V219.483H634.959C644.135 241.649 649.965 265.974 649.994 289.787Z" fill="#71A5FF"/>
<path opacity="0.1" d="M407.568 141.874H387.739V168.443H407.568V141.874Z" fill="#71A5FF"/>
<path opacity="0.1" d="M407.568 196.946H387.739V203.064H407.568V196.946Z" fill="#71A5FF"/>
<path opacity="0.1" d="M407.568 205.66H387.739V223.509H407.568V205.66Z" fill="#71A5FF"/>
<path opacity="0.1" d="M407.568 252.017H387.739V278.586H407.568V252.017Z" fill="#71A5FF"/>
<path opacity="0.1" d="M407.568 307.089H387.739V333.657H407.568V307.089Z" fill="#71A5FF"/>
<path opacity="0.1" d="M407.562 382.55C407.762 382.55 407.956 382.55 408.15 382.587H407.562V388.759H387.739V362.16H407.562V382.55Z" fill="#71A5FF"/>
<path opacity="0.1" d="M407.562 417.219V437.743C400.934 437.163 394.327 436.375 387.739 435.378V417.219H407.562Z" fill="#71A5FF"/>
<path opacity="0.1" d="M308.842 287.835H223.862V289.788H308.842V287.835Z" fill="#71A5FF"/>
<path opacity="0.1" d="M308.842 292.384H223.862V299.864H308.842V292.384Z" fill="#71A5FF"/>
<path opacity="0.1" d="M308.842 324.383H223.862V336.412H308.842V324.383Z" fill="#71A5FF"/>
<path opacity="0.1" d="M308.836 360.932V372.96H242.368C239.482 370.682 236.631 368.342 233.815 365.942C231.868 364.282 229.939 362.58 227.974 360.932H308.836Z" fill="#71A5FF"/>
<path opacity="0.1" d="M308.836 397.473V409.49H301.819C293.933 405.813 286.201 401.801 278.625 397.455L308.836 397.473Z" fill="#71A5FF"/>
<path opacity="0.1" d="M473.083 213.815H456.354V231.11H473.083V213.815Z" fill="#71A5FF"/>
<path opacity="0.1" d="M110.872 133.233H94.1437V150.528H110.872V133.233Z" fill="#71A5FF"/>
<path opacity="0.1" d="M110.872 173.405H94.1437V190.7H110.872V173.405Z" fill="#71A5FF"/>
<path opacity="0.1" d="M110.872 213.578H94.1437V230.873H110.872V213.578Z" fill="#71A5FF"/>
<path opacity="0.1" d="M110.872 253.744H94.1437V271.039H110.872V253.744Z" fill="#71A5FF"/>
<path opacity="0.1" d="M110.872 293.917H94.1437V311.212H110.872V293.917Z" fill="#71A5FF"/>
<path opacity="0.1" d="M110.872 334.089H94.1437V351.384H110.872V334.089Z" fill="#71A5FF"/>
<path opacity="0.1" d="M536.945 213.815H520.217V231.11H536.945V213.815Z" fill="#71A5FF"/>
<path opacity="0.1" d="M473.083 256.475H456.354V273.77H473.083V256.475Z" fill="#71A5FF"/>
<path opacity="0.1" d="M536.945 256.475H520.217V273.77H536.945V256.475Z" fill="#71A5FF"/>
<path opacity="0.1" d="M473.083 299.128H456.354V316.423H473.083V299.128Z" fill="#71A5FF"/>
<path opacity="0.1" d="M536.945 299.128H520.217V316.423H536.945V299.128Z" fill="#71A5FF"/>
<path opacity="0.1" d="M473.083 341.788H456.354V359.083H473.083V341.788Z" fill="#71A5FF"/>
<path opacity="0.1" d="M536.945 341.788H520.217V359.083H536.945V341.788Z" fill="#71A5FF"/>
<path opacity="0.1" d="M473.083 384.448H456.354V401.742H473.083V384.448Z" fill="#71A5FF"/>
<path opacity="0.1" d="M536.945 384.448H520.217V401.742H536.945V384.448Z" fill="#71A5FF"/>
<path opacity="0.1" d="M456.354 438.254V427.101H473.077V436.667L456.354 438.254Z" fill="#71A5FF"/>
<path opacity="0.1" d="M10.5878 181.445V191.339H67.8387V181.445H10.5878ZM16.2935 190.719H11.6231V182.053H16.3288L16.2935 190.719ZM21.9933 190.719H17.2876V182.053H21.9933V190.719ZM27.6813 190.719H22.9756V182.053H27.6813V190.719ZM33.3811 190.719H28.6813V182.053H33.387L33.3811 190.719ZM39.075 190.719H34.3693V182.053H39.075V190.719ZM44.7748 190.719H40.0691V182.053H44.7748V190.719ZM50.4746 190.719H45.7689V182.053H50.4746V190.719ZM56.1685 190.719H51.4628V182.053H56.1685V190.719ZM61.8624 190.719H57.1567V182.053H61.8624V190.719ZM67.5564 190.719H62.8506V182.053H67.5564V190.719Z" fill="#71A5FF"/>
<path opacity="0.1" d="M10.5878 210.233V220.127H67.8387V210.233H10.5878ZM16.2935 219.501H11.6231V210.86H16.3288L16.2935 219.501ZM21.9933 219.501H17.2876V210.86H21.9933V219.501ZM27.6813 219.501H22.9756V210.86H27.6813V219.501ZM33.3811 219.501H28.6813V210.86H33.387L33.3811 219.501ZM39.075 219.501H34.3693V210.86H39.075V219.501ZM44.7748 219.501H40.0691V210.86H44.7748V219.501ZM50.4746 219.501H45.7689V210.86H50.4746V219.501ZM56.1685 219.501H51.4628V210.86H56.1685V219.501ZM61.8624 219.501H57.1567V210.86H61.8624V219.501ZM67.5564 219.501H62.8506V210.86H67.5564V219.501Z" fill="#71A5FF"/>
<path opacity="0.1" d="M10.5878 239.034V248.946H67.8387V239.034H10.5878ZM16.2935 248.302H11.6231V239.654H16.3288L16.2935 248.302ZM21.9933 248.302H17.2876V239.654H21.9933V248.302ZM27.6813 248.302H22.9756V239.654H27.6813V248.302ZM33.3811 248.302H28.6813V239.654H33.387L33.3811 248.302ZM39.075 248.302H34.3693V239.654H39.075V248.302ZM44.7748 248.302H40.0691V239.654H44.7748V248.302ZM50.4746 248.302H45.7689V239.654H50.4746V248.302ZM56.1685 248.302H51.4628V239.654H56.1685V248.302ZM61.8624 248.302H57.1567V239.654H61.8624V248.302ZM67.5564 248.302H62.8506V239.654H67.5564V248.302Z" fill="#71A5FF"/>
<path opacity="0.1" d="M10.5878 267.834V277.716H67.8387V267.834H10.5878ZM16.2935 277.102H11.6231V268.449H16.3288L16.2935 277.102ZM21.9933 277.102H17.2876V268.449H21.9933V277.102ZM27.6813 277.102H22.9756V268.449H27.6813V277.102ZM33.3811 277.102H28.6813V268.449H33.387L33.3811 277.102ZM39.075 277.102H34.3693V268.449H39.075V277.102ZM44.7748 277.102H40.0691V268.449H44.7748V277.102ZM50.4746 277.102H45.7689V268.449H50.4746V277.102ZM56.1685 277.102H51.4628V268.449H56.1685V277.102ZM61.8624 277.102H57.1567V268.449H61.8624V277.102ZM67.5564 277.102H62.8506V268.449H67.5564V277.102Z" fill="#71A5FF"/>
<path opacity="0.1" d="M10.8349 296.629C11.0643 297.559 11.3231 298.49 11.5937 299.408V297.249H16.2994V305.897H13.7818C13.8583 306.097 13.9348 306.316 14.0113 306.505H67.8387V296.629H10.8349ZM22.011 305.897H17.3053V297.249H22.011V305.897ZM27.699 305.897H22.9933V297.249H27.699V305.897ZM33.3988 305.897H28.6813V297.249H33.387L33.3988 305.897ZM39.0927 305.897H34.387V297.249H39.0927V305.897ZM44.7925 305.897H40.0868V297.249H44.7925V305.897ZM50.4923 305.897H45.7866V297.249H50.4923V305.897ZM56.1862 305.897H51.4805V297.249H56.1862V305.897ZM61.8801 305.897H57.1744V297.249H61.8801V305.897ZM67.574 305.897H62.8683V297.249H67.574V305.897Z" fill="#71A5FF"/>
<path opacity="0.1" d="M24.1285 325.429C24.2756 325.624 24.4168 325.843 24.5697 326.038H27.6814V330.191C28.0166 330.605 28.346 331.018 28.6872 331.407V326.013H33.3929V334.691H31.4871C31.6753 334.892 31.8577 335.105 32.0753 335.299H67.8564V325.429H24.1285ZM39.0751 334.691H34.3693V326.05H39.0751V334.691ZM44.7749 334.691H40.0691V326.05H44.7749V334.691ZM50.4746 334.691H45.7689V326.05H50.4746V334.691ZM56.1686 334.691H51.4628V326.05H56.1686V334.691ZM61.8625 334.691H57.1568V326.05H61.8625V334.691ZM67.5564 334.691H62.8507V326.05H67.5564V334.691Z" fill="#71A5FF"/>
<path opacity="0.1" d="M55.5333 354.224C56.0685 354.54 56.6156 354.832 57.1685 355.148V354.844H61.8742V357.581L62.8742 358.061V354.844H67.5799V360.104C67.6701 360.151 67.7647 360.188 67.8622 360.214V354.224H55.5333Z" fill="#71A5FF"/>
<path opacity="0.1" d="M369.757 291.223C369.869 291.612 369.963 292.001 370.069 292.384C369.975 292.001 369.875 291.612 369.757 291.223ZM88.5145 111.985V114.582H114.79V111.985H88.5145ZM369.757 291.223C369.869 291.612 369.963 292.001 370.069 292.384C369.975 292.001 369.875 291.612 369.757 291.223ZM369.757 291.223C369.869 291.612 369.963 292.001 370.069 292.384C369.975 292.001 369.875 291.612 369.757 291.223Z" fill="#71A5FF"/>
<path d="M271.52 230.885C271.52 230.885 269.202 230.551 269.202 227.06C269.202 223.569 267.543 217.05 267.543 217.05C267.543 217.02 266.108 205.697 264.126 203.897C262.143 202.097 259.596 191.527 259.596 191.527C259.596 191.527 259.161 185.793 258.273 184.558C257.385 183.324 256.185 180.302 254.414 175.99C252.644 171.678 245.262 168.693 245.262 168.693C245.262 168.693 231.915 160.69 228.133 158.081C227.789 157.866 227.468 157.616 227.174 157.333C226.515 156.439 223.645 156.421 223.645 156.421C223.345 154.463 223.057 152.212 222.963 150.175C222.963 149.956 222.962 149.737 222.933 149.519C227.151 146.941 230.327 142.878 231.88 138.074C231.95 137.843 232.009 137.599 232.074 137.368C232.327 137.282 232.559 137.143 232.757 136.958C232.954 136.774 233.112 136.549 233.221 136.298C233.562 135.514 233.568 134.595 233.992 133.866C234.486 133.002 235.427 132.54 236.168 131.889C238.038 130.247 238.521 127.48 238.433 124.963C238.374 122.925 238.056 120.87 238.18 118.845L238.215 118.334C238.25 118.03 238.291 117.726 238.344 117.434C238.633 115.926 239.262 114.503 239.615 113.007C239.968 111.511 240.003 109.827 239.18 108.537C237.974 106.646 235.462 106.269 233.256 106.074C230.756 105.855 228.521 106.141 226.921 103.995C226.172 102.873 225.33 101.821 224.404 100.851C224.074 100.534 220.874 98.5155 220.874 98.3817C217.751 96.8863 214.211 96.6056 210.904 97.5911C209.245 98.0898 207.681 98.9047 205.998 99.3121C202.369 100.2 198.193 99.2391 195.111 101.386C193.393 102.602 192.364 104.536 191.399 106.421C190.615 107.974 189.819 109.524 189.011 111.073C187.711 113.621 186.387 116.212 185.84 119.033C185.725 119.647 185.655 120.269 185.629 120.894V120.925C185.629 121.15 185.629 121.375 185.629 121.6V121.886C185.629 122.098 185.629 122.305 185.664 122.494C185.699 122.682 185.693 122.743 185.711 122.871C185.729 122.998 185.758 123.284 185.793 123.479C185.829 123.673 185.899 124.014 185.97 124.282C185.999 124.397 186.04 124.507 186.076 124.616C186.134 124.823 186.205 125.023 186.281 125.224C186.323 125.327 186.364 125.437 186.411 125.54C186.499 125.753 186.605 125.96 186.711 126.148C186.758 126.234 186.793 126.313 186.84 126.392C187.004 126.675 187.185 126.947 187.381 127.207C188.64 128.83 190.493 129.864 191.864 131.384C191.864 131.445 191.864 131.506 191.864 131.561C191.864 131.731 191.864 131.895 191.864 132.065C191.936 135.456 192.809 138.777 194.406 141.739C196.004 144.701 198.277 147.215 201.028 149.062C201.028 149.294 201.057 149.531 201.069 149.762C201.184 151.567 201.162 153.378 201.004 155.18C200.765 154.888 200.465 154.656 200.127 154.5C199.789 154.345 199.422 154.269 199.052 154.28C198.799 154.267 198.546 154.29 198.299 154.347L198.246 154.304V154.359C196.952 154.688 195.358 156.08 193.834 160.039C193.834 160.039 189.199 165.439 185.67 165.214C182.14 164.989 173.205 170.833 173.205 170.833C173.205 170.833 164.488 176.683 162.618 182.643C161.572 186.022 160.319 189.329 158.865 192.543L148.089 215.5L146.101 233.713C146.101 233.713 147.201 241.813 146.983 243.047C146.765 244.282 151.506 255.417 151.506 255.417C151.506 255.417 167.17 283.871 173.57 285.33L174.029 284.996C174.303 285.143 174.593 285.256 174.894 285.33L176.211 284.369C176.29 285.44 176.257 286.517 176.111 287.58C175.229 290.39 176.441 308.724 177.982 312.318C179.523 315.912 178.976 363.036 178.976 363.036L178.758 367.195C178.758 367.195 178.758 367.329 178.811 367.56L178.758 368.545L178.917 368.63C179.082 369.95 179.028 371.288 178.758 372.589C178.205 374.414 177.982 379.57 177.982 379.57C177.982 379.57 173.576 408.687 175.664 414.537C177.752 420.387 179.529 426.797 179.529 426.797C179.529 426.797 181.735 434.094 179.635 435.341C177.535 436.588 171.564 438.68 172.794 441.72C173.911 444.53 178.152 452.058 178.782 453.159L178.729 453.737L177.864 463.424C178.004 464.703 178.34 465.951 178.858 467.121C179.805 469.232 181.646 471.421 185.146 471.184C185.734 471.141 186.417 471.068 187.076 470.977C193.481 470.089 201.369 467.134 201.369 467.134C200.96 466.865 200.584 466.544 200.252 466.179C199.937 465.864 199.687 465.485 199.518 465.067C199.349 464.649 199.265 464.2 199.269 463.746C199.363 461.983 196.169 453.579 195.375 451.511C195.252 451.213 195.187 451.043 195.187 451.043C195.187 451.043 202.469 443.174 201.257 436.199C201.257 436.199 193.199 431.334 195.852 428.664C198.505 425.994 203.246 418.326 203.246 418.326C203.246 418.326 203.463 389.653 203.246 385.372C203.019 382.4 203.155 379.411 203.651 376.475C203.74 376.031 203.846 375.599 203.957 375.174C207.626 375.74 211.33 376.031 215.039 376.043C216.392 376.043 217.769 376.043 219.157 375.958C219.157 376.364 219.174 376.801 219.21 377.272C219.516 384.375 220.086 396.829 220.551 401.457C221.21 408.091 224.851 425.97 224.851 425.97C224.851 425.97 217.904 430.58 226.062 441.939C226.062 441.939 226.062 446.056 225.521 446.652C224.944 448.6 224.478 450.582 224.127 452.587C223.786 454.728 223.645 456.893 224.198 458.018C225.521 460.706 233.462 460.487 233.462 460.487L233.656 460.45C235.155 460.29 236.67 460.439 238.113 460.889C239.556 461.339 240.898 462.081 242.062 463.071C245.079 465.577 256.532 464.476 262.732 463.679C265.161 463.363 266.784 463.071 266.784 463.071C266.863 462.787 266.891 462.49 266.867 462.196C266.802 460.621 265.608 457.167 257.514 454.083C257.514 454.083 249.903 448.793 250.009 444.183H249.85H248.967C249.609 444.147 250.02 444.183 250.02 444.183C250.02 444.183 247.038 432.933 248.256 432.021C249.473 431.109 245.826 418.642 245.826 418.642C245.826 418.642 243.738 397.723 243.626 396.257C243.631 395 243.815 393.75 244.174 392.548L243.626 381.079C243.626 381.079 243.521 377.266 243.626 376.025C243.609 374.948 243.524 373.874 243.374 372.808C243.321 372.382 243.268 371.938 243.209 371.501C246.062 370.753 247.915 370.059 247.915 370.059L247.585 330.136C250.009 325.271 250.456 314.599 250.444 307.028C250.444 302.163 250.232 298.563 250.232 298.563L253.544 292.974C253.544 292.974 254.308 286.285 253.097 284.819C252.561 284.156 252.803 283.469 253.244 282.904C253.473 282.716 253.715 282.545 253.967 282.393C253.967 282.393 253.932 282.338 253.891 282.259C254.122 282.059 254.368 281.878 254.626 281.718C254.626 281.718 253.45 279.833 254.503 279.036C255.491 279.729 256.373 280.252 257.044 280.678C256.997 281.122 256.95 281.377 256.95 281.377L257.232 280.769C257.879 281.146 258.273 281.377 258.273 281.377C258.273 281.377 263.461 270.693 263.349 269.118C263.238 267.542 266.879 260.908 266.879 260.908C266.879 260.908 267.32 257.423 269.308 255.964C271.296 254.504 270.849 243.929 270.849 243.929C270.849 243.929 271.402 238.42 272.725 236.17C274.049 233.92 271.52 230.885 271.52 230.885ZM172.253 226.196L172.353 228.744C171.764 227.765 171.341 227.06 171.341 227.06L172.253 226.196Z" fill="url(#paint0_linear_8_31)"/>
<path d="M258.555 276.762L257.285 282.356C257.285 282.356 247.109 276.987 245.273 270.163C243.438 263.34 248.344 260.75 248.344 260.75L257.826 264.903L258.555 276.762Z" fill="white"/>
<path opacity="0.1" d="M258.555 276.762L257.285 282.356C257.285 282.356 247.109 276.987 245.273 270.163C243.438 263.34 248.344 260.75 248.344 260.75L257.826 264.903L258.555 276.762Z" fill="black"/>
<path d="M201.446 467.17C201.446 467.17 192.034 470.746 185.564 471.196C182.129 471.433 180.323 469.256 179.394 467.158C178.886 465.992 178.558 464.75 178.423 463.479L179.264 453.84L179.711 448.708L193.458 445.016L195.405 451.17L195.587 451.639C196.369 453.694 199.505 462.056 199.41 463.801C199.407 464.248 199.49 464.691 199.656 465.104C199.822 465.517 200.066 465.891 200.375 466.203C200.691 466.571 201.05 466.896 201.446 467.17Z" fill="white"/>
<path d="M265.732 462.269C265.755 462.561 265.727 462.856 265.649 463.138C265.649 463.138 245.521 466.611 241.403 463.138C240.242 462.124 238.889 461.372 237.43 460.93C235.972 460.488 234.44 460.366 232.933 460.572C232.933 460.572 225.145 460.791 223.845 458.14C223.304 457.027 223.445 454.868 223.78 452.739C224.122 450.745 224.578 448.773 225.145 446.835L225.457 446.579L227.309 445.041L249.003 444.378H249.167C249.062 448.963 256.532 454.223 256.532 454.223C264.467 457.264 265.637 460.7 265.732 462.269Z" fill="white"/>
<path opacity="0.1" d="M265.732 462.269C265.752 462.562 265.722 462.856 265.643 463.138C265.643 463.138 245.521 466.611 241.403 463.138C240.243 462.125 238.891 461.373 237.433 460.931C235.975 460.489 234.445 460.367 232.939 460.572C232.939 460.572 225.145 460.791 223.851 458.14C223.31 457.021 223.445 454.868 223.78 452.739C226.78 453.05 231.515 453.822 233.374 455.664C236.186 458.468 240.95 461.265 243.874 461.484C246.162 461.636 259.849 462.086 265.732 462.269Z" fill="black"/>
<path opacity="0.1" d="M201.446 467.17C201.446 467.17 192.034 470.746 185.564 471.196C182.129 471.433 180.323 469.256 179.399 467.152C181.793 467.985 185.117 468.861 186.864 468.058C188.934 467.109 196.275 466.495 200.393 466.234C200.706 466.588 201.06 466.903 201.446 467.17Z" fill="black"/>
<path d="M215.41 179.012C207.645 175.893 197.658 165.585 200.152 160.769C200.706 159.553 201.035 158.242 201.122 156.901C201.283 155.081 201.306 153.252 201.193 151.428C201.018 148.442 200.67 145.469 200.152 142.525C200.152 142.525 224.392 143.091 222.98 146.782C222.568 147.864 222.504 149.743 222.615 151.848C222.727 153.952 223.021 156.329 223.327 158.342C223.751 161.103 224.174 163.207 224.174 163.207C224.174 163.207 222.692 165.354 221.821 165.469C220.951 165.585 226.551 183.458 215.41 179.012Z" fill="#CF6F80"/>
<path opacity="0.1" d="M195.569 451.639L195.387 451.846C188.14 442.785 179.376 454.077 179.376 454.077L179.246 453.84L179.694 448.708L193.44 445.016L195.387 451.17L195.569 451.639Z" fill="black"/>
<path opacity="0.1" d="M249.173 445.016C249.173 445.016 243.879 444.901 241.056 447.479C238.233 450.058 224.586 448.039 225.174 447.479C225.348 447.202 225.454 446.884 225.48 446.555L227.333 445.016L249.026 444.353C249.109 444.761 249.173 445.016 249.173 445.016Z" fill="black"/>
<path d="M204.587 373.86C204.192 374.868 203.893 375.913 203.693 376.98C203.202 379.902 203.066 382.877 203.287 385.834C203.504 390.091 203.287 418.618 203.287 418.618C203.287 418.618 198.634 426.225 196.04 428.907C193.446 431.589 201.334 436.405 201.334 436.405C202.51 443.338 195.381 451.17 195.381 451.17C188.134 442.109 179.37 453.408 179.37 453.408C179.37 453.408 174.605 444.895 173.417 441.854C172.229 438.813 178.07 436.709 180.123 435.475C182.176 434.24 180.023 426.961 180.023 426.961C180.023 426.961 178.288 420.582 176.229 414.762C174.17 408.943 178.499 379.972 178.499 379.972C178.499 379.972 178.723 374.827 179.258 373.033C179.528 371.739 179.582 370.406 179.417 369.092C179.382 368.649 179.341 368.278 179.311 368.028C179.282 367.779 179.258 367.663 179.258 367.663L179.341 367.517L182.282 361.85C182.282 361.85 205.998 370.29 204.587 373.86Z" fill="#71A5FF"/>
<path d="M249.173 444.347C249.173 444.347 243.879 444.232 241.056 446.78C238.233 449.328 224.586 447.339 225.174 446.78C225.762 446.22 225.715 442.079 225.715 442.079C217.71 430.78 224.539 426.195 224.539 426.195C224.539 426.195 220.963 408.407 220.316 401.809C219.863 397.2 219.304 384.812 219.004 377.74C218.874 374.699 218.798 372.607 218.798 372.607L225.339 371.245L226.18 371.069L241.956 367.797C241.956 367.797 242.391 370.838 242.685 373.325C242.832 374.387 242.914 375.457 242.932 376.53C242.827 377.746 242.932 381.553 242.932 381.553L243.468 392.967C243.118 394.165 242.938 395.408 242.932 396.659C243.038 398.112 245.091 418.922 245.091 418.922C245.091 418.922 248.662 431.34 247.444 432.234C246.226 433.128 249.173 444.347 249.173 444.347Z" fill="#71A5FF"/>
<path opacity="0.1" d="M222.98 146.782C222.568 147.864 222.504 149.743 222.616 151.848C219.369 153.869 215.636 154.902 211.847 154.829C208.057 154.756 204.364 153.579 201.193 151.434C201.018 148.446 200.67 145.471 200.152 142.525C200.152 142.525 224.392 143.079 222.98 146.782Z" fill="black"/>
<path d="M232.35 133.343C232.355 135.534 232.022 137.712 231.362 139.795C229.889 144.461 226.867 148.439 222.831 151.025C218.794 153.61 214.004 154.638 209.306 153.925C204.608 153.213 200.305 150.806 197.157 147.131C194.01 143.456 192.22 138.749 192.105 133.841C192.105 133.671 192.105 133.513 192.105 133.343C192.059 130.58 192.546 127.836 193.537 125.27C194.528 122.705 196.003 120.368 197.876 118.398C199.75 116.428 201.984 114.863 204.448 113.795C206.913 112.727 209.558 112.177 212.231 112.177C214.903 112.177 217.548 112.727 220.013 113.795C222.477 114.863 224.711 116.428 226.585 118.398C228.458 120.368 229.933 122.705 230.924 125.27C231.915 127.836 232.402 130.58 232.356 133.343H232.35Z" fill="#CF6F80"/>
<path opacity="0.1" d="M215.41 179.012C207.645 175.893 197.658 165.585 200.152 160.769C200.706 159.553 201.035 158.242 201.122 156.901L211.751 165.932L218.327 171.508L223.327 158.348C223.751 161.109 224.174 163.213 224.174 163.213C224.174 163.213 222.692 165.36 221.821 165.476C220.951 165.591 226.551 183.458 215.41 179.012Z" fill="black"/>
<path d="M242.897 218.923L234.021 373.082L222.445 373.866L192.469 284.479L197.387 178.356L198.422 155.934L211.751 167.251L218.333 172.828L223.48 159.285L233.05 167.908L242.897 218.923Z" fill="#71A5FF"/>
<path opacity="0.1" d="M204.587 373.86C204.192 374.868 203.893 375.913 203.693 376.98C195.269 375.635 187.089 372.993 179.423 369.141L179.264 369.056L179.317 368.077L179.346 367.566L182.288 361.898C182.288 361.898 205.998 370.29 204.587 373.86Z" fill="black"/>
<path opacity="0.1" d="M225.474 377.004C223.321 377.383 221.149 377.639 218.969 377.77C218.839 374.73 218.763 372.638 218.763 372.638L225.304 371.276L225.474 377.004Z" fill="black"/>
<path opacity="0.1" d="M242.65 373.355C238.468 374.48 232.009 375.745 226.227 374.955L226.145 371.099L241.921 367.828C241.921 367.828 242.356 370.838 242.65 373.355Z" fill="black"/>
<path opacity="0.1" d="M226.121 375.66C202.004 379.917 179.917 367.712 179.917 367.712L180.129 363.577C180.129 363.577 180.676 316.697 179.158 313.103C177.641 309.509 176.458 291.284 177.317 288.486C178.176 285.689 174.182 243.741 174.182 243.741L173.535 226.713L149.853 216.795L160.441 193.978C161.871 190.779 163.101 187.489 164.123 184.127C165.965 178.204 174.511 172.384 174.511 172.384C174.511 172.384 183.276 166.57 186.74 166.789C190.205 167.008 194.746 161.644 194.746 161.644C198.099 152.808 201.134 156.81 201.134 156.81C201.134 157.229 201.134 156.81 200.969 158.117C199.793 167.817 219.992 198.466 220.28 199.007L222.204 247.45L224.151 308.755L226.121 375.66Z" fill="black"/>
<path d="M225.474 375.66C201.357 379.917 179.264 367.712 179.264 367.712L179.482 363.577C179.482 363.577 180.029 316.697 178.505 313.103C176.982 309.509 175.805 291.284 176.67 288.486C177.535 285.689 173.535 243.741 173.535 243.741L172.882 226.713L149.189 216.758L159.777 193.942C161.204 190.741 162.433 187.451 163.459 184.09C165.294 178.167 173.847 172.347 173.847 172.347C173.847 172.347 182.611 166.534 186.07 166.753C189.528 166.972 194.075 161.608 194.075 161.608C197.434 152.772 201.134 156.773 201.134 156.773C201.134 157.193 200.781 157.381 200.969 158.081C203.557 167.488 219.345 198.43 219.633 198.971L221.58 247.414L223.527 308.718L225.474 375.66Z" fill="white"/>
<path opacity="0.1" d="M218.974 200.351C216.38 199.232 202.64 183.014 202.64 183.014V179.322C202.14 178.106 199.169 178.848 196.758 179.7L197.793 157.278L198.969 158.288C201.546 167.689 218.674 199.81 218.974 200.351Z" fill="black"/>
<path d="M219.627 199.007C217.027 197.888 203.287 181.67 203.287 181.67V177.979C202.787 176.762 199.816 177.504 197.405 178.356L198.446 155.934L199.622 156.944C202.204 166.345 219.339 198.472 219.627 199.007Z" fill="white"/>
<path opacity="0.1" d="M179.917 279.893C180.241 279.893 196.687 278.106 196.687 278.106C196.687 278.106 206.645 298.35 205.993 303.276C205.34 308.201 204.157 312.562 200.152 311.789C196.146 311.017 178.594 312.397 178.594 312.397L179.917 279.893Z" fill="black"/>
<path d="M179.264 278.549C179.588 278.549 196.034 276.762 196.034 276.762C196.034 276.762 205.987 297.012 205.34 301.932C204.693 306.851 203.499 311.218 199.499 310.445C195.499 309.673 177.941 311.053 177.941 311.053L179.264 278.549Z" fill="white"/>
<path d="M191.658 269.045C191.658 269.045 206.751 277.431 207.075 279.991C207.398 282.551 199.393 278.872 197.663 278.428C196.525 278.144 195.366 277.957 194.199 277.868L182.664 278.191L191.658 269.045Z" fill="#CF6F80"/>
<path opacity="0.1" d="M214.763 201.397C215.64 201.397 216.351 200.662 216.351 199.755C216.351 198.849 215.64 198.113 214.763 198.113C213.886 198.113 213.175 198.849 213.175 199.755C213.175 200.662 213.886 201.397 214.763 201.397Z" fill="black"/>
<path d="M214.763 200.728C215.64 200.728 216.351 199.993 216.351 199.086C216.351 198.18 215.64 197.444 214.763 197.444C213.886 197.444 213.175 198.18 213.175 199.086C213.175 199.993 213.886 200.728 214.763 200.728Z" fill="#3F3D56"/>
<path opacity="0.1" d="M217.686 272.474C218.563 272.474 219.274 271.739 219.274 270.832C219.274 269.926 218.563 269.191 217.686 269.191C216.809 269.191 216.098 269.926 216.098 270.832C216.098 271.739 216.809 272.474 217.686 272.474Z" fill="black"/>
<path d="M217.686 271.799C218.563 271.799 219.274 271.064 219.274 270.157C219.274 269.251 218.563 268.515 217.686 268.515C216.809 268.515 216.098 269.251 216.098 270.157C216.098 271.064 216.809 271.799 217.686 271.799Z" fill="#3F3D56"/>
<path opacity="0.1" d="M216.345 236.936C217.222 236.936 217.933 236.201 217.933 235.294C217.933 234.387 217.222 233.652 216.345 233.652C215.468 233.652 214.757 234.387 214.757 235.294C214.757 236.201 215.468 236.936 216.345 236.936Z" fill="black"/>
<path d="M216.345 236.267C217.222 236.267 217.933 235.532 217.933 234.625C217.933 233.718 217.222 232.983 216.345 232.983C215.468 232.983 214.757 233.718 214.757 234.625C214.757 235.532 215.468 236.267 216.345 236.267Z" fill="#3F3D56"/>
<path d="M252.956 277.528C252.956 277.528 254.038 279.206 252.956 279.991C251.873 280.775 253.061 282.673 253.061 282.673C253.061 282.673 250.362 284.308 251.55 285.78C252.738 287.252 251.985 293.898 251.985 293.898L248.738 299.457C248.738 299.457 248.932 303.038 248.944 307.879C248.944 315.432 248.515 326.05 246.138 330.89L246.468 370.607C246.468 370.607 235.097 374.9 225.58 373.593L224.168 309.862C224.168 309.862 226.227 273.721 226.986 266.788C227.43 263.189 227.611 259.561 227.527 255.933C227.527 255.933 227.204 245.085 226.115 240.049C226.115 240.049 224.939 218.236 224.821 212.197C224.768 209.309 224.915 200.88 225.08 192.865C225.262 184.102 225.468 175.838 225.468 175.838L223.321 158.275C223.321 158.275 225.468 158.05 226.115 158.944C226.405 159.224 226.72 159.475 227.057 159.692C230.762 162.283 243.856 170.249 243.856 170.249C243.856 170.249 251.103 173.229 252.838 177.498C254.573 181.767 255.779 184.796 256.62 186.012C257.461 187.228 257.92 192.944 257.92 192.944C257.92 192.944 260.414 203.465 262.361 205.247C264.308 207.028 265.732 218.364 265.732 218.364L248.526 232.351C248.526 232.351 247.015 255.617 246.691 256.517C246.368 257.417 252.956 277.528 252.956 277.528Z" fill="white"/>
<path d="M253.608 277.528C253.608 277.528 254.685 279.206 253.608 279.991C252.532 280.775 253.708 282.673 253.708 282.673C253.708 282.673 251.026 284.327 252.203 285.798C253.379 287.27 252.638 293.917 252.638 293.917L249.391 299.475C249.391 299.475 249.585 303.057 249.603 307.897C249.603 315.45 249.173 326.068 246.797 330.909L247.12 370.625C247.12 370.625 235.733 374.918 226.227 373.611L224.821 309.88C224.821 309.88 226.88 273.739 227.639 266.807C228.083 263.208 228.262 259.579 228.174 255.952C228.174 255.952 227.851 245.103 226.768 240.068C226.768 240.068 225.592 218.254 225.468 212.216C225.415 209.327 225.568 200.899 225.727 192.884C225.909 184.121 226.115 175.856 226.115 175.856L223.28 158.057C223.28 158.057 226.115 158.057 226.768 158.963C227.055 159.246 227.371 159.497 227.709 159.711C231.415 162.301 244.515 170.268 244.515 170.268C244.515 170.268 251.756 173.247 253.491 177.516C255.226 181.785 256.432 184.814 257.279 186.03C258.126 187.246 258.573 192.963 258.573 192.963C258.573 192.963 261.067 203.483 263.014 205.265C264.961 207.047 266.367 218.358 266.367 218.358L249.162 232.344C249.162 232.344 247.65 255.611 247.32 256.511C246.991 257.411 253.608 277.528 253.608 277.528Z" fill="white"/>
<path opacity="0.1" d="M233.003 181.019L234.556 185.702L226.38 194.215C226.562 185.458 226.768 177.188 226.768 177.188L223.933 159.388C223.933 159.388 226.768 159.388 227.421 160.294C227.707 160.577 228.023 160.826 228.362 161.036L235.315 181.773L233.003 181.019Z" fill="black"/>
<path d="M232.35 179.675L233.909 184.358L225.733 192.871C225.915 184.108 226.121 175.844 226.121 175.844L223.28 158.044C223.28 158.044 226.121 158.044 226.768 158.95C227.057 159.232 227.372 159.483 227.709 159.698L234.668 180.429L232.35 179.675Z" fill="white"/>
<path opacity="0.1" d="M232.35 133.343C232.355 135.534 232.022 137.712 231.362 139.795C231.251 139.813 231.138 139.807 231.028 139.779C230.919 139.751 230.817 139.7 230.727 139.63C230.574 134.157 227.968 129.019 224.762 124.646C223.862 123.326 222.771 122.157 221.527 121.18C220.27 120.204 218.705 119.746 217.139 119.897C215.375 120.146 213.816 121.387 212.034 121.545C209.681 121.746 207.575 120.061 205.24 119.976C204.29 119.985 203.354 120.204 202.493 120.617C201.631 121.03 200.865 121.629 200.246 122.372C199.019 123.872 198.107 125.62 197.569 127.505C196.644 130.362 196.141 133.347 196.075 136.359C196.046 138.062 195.887 140.196 194.358 140.816C194.473 139.564 194.335 138.301 193.953 137.106C193.572 135.912 192.954 134.812 192.14 133.878L192.105 133.841C192.105 133.671 192.105 133.513 192.105 133.343C192.059 130.58 192.546 127.836 193.537 125.27C194.528 122.705 196.003 120.368 197.876 118.398C199.75 116.428 201.984 114.863 204.448 113.795C206.913 112.727 209.558 112.177 212.231 112.177C214.903 112.177 217.548 112.727 220.013 113.795C222.477 114.863 224.711 116.428 226.585 118.398C228.458 120.368 229.933 122.705 230.924 125.27C231.915 127.836 232.402 130.58 232.356 133.343H232.35Z" fill="black"/>
<path d="M220.563 100.303C217.506 98.8169 214.03 98.5357 210.787 99.5128C209.157 100.011 207.622 100.82 205.969 101.228C202.44 102.109 198.322 101.155 195.293 103.289C193.611 104.505 192.599 106.427 191.658 108.294L189.305 112.928C188.023 115.464 186.729 118.042 186.193 120.833C185.658 123.625 185.982 126.75 187.693 128.994C188.94 130.63 190.781 131.658 192.134 133.197C192.945 134.132 193.56 135.231 193.94 136.424C194.321 137.617 194.459 138.878 194.346 140.129C195.881 139.521 196.028 137.38 196.064 135.678C196.129 132.665 196.633 129.681 197.558 126.823C198.094 124.939 199.006 123.191 200.234 121.691C200.854 120.948 201.62 120.35 202.481 119.937C203.342 119.524 204.279 119.305 205.228 119.295C207.581 119.38 209.692 121.058 212.022 120.858C213.786 120.706 215.351 119.459 217.127 119.216C218.694 119.063 220.259 119.52 221.516 120.499C222.759 121.475 223.849 122.644 224.745 123.965C227.956 128.338 230.562 133.464 230.715 138.949C231.38 139.454 232.339 138.797 232.668 138.019C232.997 137.241 233.009 136.328 233.427 135.586C233.909 134.729 234.833 134.273 235.556 133.628C237.391 131.992 237.85 129.238 237.78 126.738C237.709 124.239 237.239 121.703 237.697 119.246C237.974 117.738 238.597 116.327 238.938 114.837C239.28 113.348 239.321 111.675 238.515 110.392C237.339 108.507 234.862 108.136 232.703 107.96C230.251 107.741 228.056 108.02 226.492 105.886C225.757 104.772 224.931 103.726 224.021 102.76C223.71 102.444 220.563 100.437 220.563 100.303Z" fill="#512E4E"/>
<path opacity="0.1" d="M156.63 228.544L150.483 216.795L148.536 234.923C148.536 234.923 149.618 242.974 149.4 244.209C149.183 245.443 153.836 256.511 153.836 256.511C153.836 256.511 169.206 284.813 175.482 286.273L196.687 270.607L191.064 263.225C191.064 263.225 189.117 262.44 188.628 263.225C188.628 263.225 178.188 244.653 177.105 243.309C176.023 241.965 176.235 239.283 176.235 239.283C176.235 239.283 174.611 237.495 175.152 235.817C175.694 234.138 172.017 228.319 172.017 228.319L175.37 225.077L156.63 228.544Z" fill="black"/>
<path d="M150.806 215.457L149.183 216.795L147.236 234.923C147.236 234.923 148.318 242.974 148.101 244.209C147.883 245.443 152.542 256.511 152.542 256.511C152.542 256.511 167.906 284.813 174.182 286.273L195.393 270.607L189.764 263.225C189.764 263.225 187.817 262.44 187.329 263.225C187.329 263.225 176.888 244.653 175.805 243.309C174.723 241.965 174.941 239.283 174.941 239.283C174.941 239.283 173.317 237.495 173.858 235.817C174.4 234.138 170.717 228.319 170.717 228.319L174.07 225.077L150.806 215.457Z" fill="white"/>
<path opacity="0.1" d="M251.55 286.473C252.726 287.951 251.985 294.586 251.985 294.586L248.738 300.144C248.738 300.144 248.932 303.732 248.944 308.566L243.485 310.33C242.992 310.489 242.469 310.524 241.96 310.432C241.451 310.34 240.97 310.123 240.559 309.8C240.147 309.477 239.816 309.057 239.594 308.574C239.371 308.092 239.264 307.562 239.28 307.028L240.221 275.643L252.956 280.678C251.873 281.456 253.061 283.366 253.061 283.366C253.061 283.366 250.362 284.996 251.55 286.473Z" fill="black"/>
<path d="M252.203 285.798C253.379 287.276 252.638 293.917 252.638 293.917L249.391 299.475C249.391 299.475 249.585 303.057 249.603 307.897L244.044 309.691C243.561 309.847 243.049 309.88 242.551 309.789C242.052 309.699 241.582 309.486 241.179 309.17C240.777 308.853 240.453 308.442 240.235 307.97C240.017 307.498 239.911 306.979 239.927 306.456L240.874 274.974L253.614 280.009C252.526 280.787 253.714 282.691 253.714 282.691C253.714 282.691 251.026 284.327 252.203 285.798Z" fill="white"/>
<path d="M256.42 270.838C256.42 270.838 255.555 276.549 253.391 276.883C251.226 277.218 250.256 286.121 248.097 285.804C245.938 285.488 247.368 277.528 247.444 275.983C247.52 274.439 245.091 268.041 246.909 266.588C248.726 265.134 254.479 266.588 254.479 266.588L256.42 270.838Z" fill="#CF6F80"/>
<path opacity="0.1" d="M261.026 226.865L265.108 218.352C265.108 218.352 266.732 224.84 266.732 228.307C266.732 231.773 269.002 232.113 269.002 232.113C269.002 232.113 271.49 235.154 270.178 237.368C268.867 239.581 268.337 245.091 268.337 245.091C268.337 245.091 268.767 255.605 266.82 257.058C264.873 258.512 264.467 261.984 264.467 261.984C264.467 261.984 260.891 268.582 261.002 270.151C261.114 271.72 256.026 282.344 256.026 282.344C256.026 282.344 258.514 269.142 244.015 263.438C244.015 263.438 243.903 258.956 244.985 257.727C246.068 256.499 247.756 255.94 246.697 249.731C245.638 243.522 246.391 236.103 246.391 234.613C246.391 233.123 249.638 223.831 249.638 223.831L261.026 226.865Z" fill="black"/>
<path d="M262.79 217.135L266.355 218.352C266.355 218.352 267.984 224.84 267.984 228.307C267.984 231.773 270.255 232.113 270.255 232.113C270.255 232.113 272.743 235.154 271.431 237.368C270.12 239.581 269.596 245.091 269.596 245.091C269.596 245.091 270.025 255.605 268.079 257.058C266.132 258.512 265.696 261.984 265.696 261.984C265.696 261.984 262.126 268.582 262.238 270.151C262.349 271.72 257.255 282.344 257.255 282.344C257.255 282.344 259.749 269.142 245.244 263.438C245.244 263.438 245.138 258.956 246.22 257.727C247.303 256.499 248.991 255.94 247.932 249.731C246.873 243.522 247.626 236.103 247.626 234.613C247.626 233.123 250.873 223.831 250.873 223.831L262.79 217.135Z" fill="white"/>
<path opacity="0.1" d="M184.058 437.804C184.058 437.804 189.74 434.113 193.469 436.795C197.199 439.476 184.058 437.804 184.058 437.804Z" fill="black"/>
<path opacity="0.1" d="M228.209 426.39C228.209 426.39 233.239 425.721 237.462 430.421C241.685 435.122 228.209 426.39 228.209 426.39Z" fill="black"/>
<g opacity="0.1">
<path d="M235.568 132.297C234.844 132.941 233.915 133.403 233.433 134.261C233.021 134.997 233.009 135.903 232.68 136.693C232.35 137.484 231.392 138.128 230.727 137.63C230.574 132.157 227.962 127.018 224.757 122.64C223.86 121.318 222.771 120.149 221.527 119.173C220.268 118.195 218.701 117.737 217.133 117.89C215.369 118.14 213.816 119.38 212.034 119.532C209.681 119.739 207.569 118.054 205.234 117.969C204.285 117.979 203.349 118.198 202.488 118.613C201.628 119.027 200.864 119.627 200.246 120.371C199.018 121.869 198.106 123.615 197.569 125.498C196.645 128.355 196.141 131.34 196.075 134.352C196.04 136.049 195.887 138.165 194.369 138.797C194.405 139.247 194.405 139.698 194.369 140.147C195.899 139.539 196.052 137.399 196.087 135.696C196.153 132.684 196.656 129.699 197.581 126.842C198.118 124.957 199.03 123.209 200.257 121.709C200.877 120.966 201.642 120.369 202.502 119.955C203.362 119.542 204.297 119.323 205.246 119.313C207.598 119.398 209.716 121.077 212.045 120.876C213.81 120.724 215.375 119.477 217.145 119.234C218.713 119.081 220.28 119.539 221.539 120.517C222.783 121.493 223.872 122.662 224.768 123.984C227.974 128.356 230.586 133.482 230.739 138.968C231.403 139.472 232.362 138.816 232.692 138.037C233.021 137.259 233.033 136.347 233.444 135.605C233.927 134.747 234.856 134.291 235.58 133.647C237.415 132.011 237.874 129.256 237.803 126.757C237.803 126.678 237.803 126.598 237.803 126.525C237.691 128.69 237.133 130.898 235.568 132.297Z" fill="black"/>
<path d="M192.146 131.865C190.793 130.326 188.946 129.299 187.705 127.669C186.66 126.226 186.063 124.489 185.993 122.688C185.808 124.939 186.416 127.183 187.705 129.007C188.946 130.642 190.793 131.67 192.146 133.209C193.445 134.714 194.225 136.621 194.364 138.633C194.454 137.409 194.304 136.178 193.923 135.015C193.542 133.852 192.937 132.781 192.146 131.865Z" fill="black"/>
<path d="M238.95 113.506C238.603 114.996 237.985 116.412 237.703 117.915C237.536 118.918 237.475 119.938 237.521 120.955C237.54 120.376 237.601 119.798 237.703 119.228C237.985 117.72 238.603 116.309 238.95 114.819C239.152 113.997 239.218 113.146 239.144 112.302C239.108 112.707 239.043 113.11 238.95 113.506Z" fill="black"/>
</g>
<path opacity="0.1" d="M78.0736 462.53C109.728 462.53 135.389 458.269 135.389 453.013C135.389 447.757 109.728 443.496 78.0736 443.496C46.4191 443.496 20.7581 447.757 20.7581 453.013C20.7581 458.269 46.4191 462.53 78.0736 462.53Z" fill="#71A5FF"/>
<path d="M79.9206 270.699H76.2325V356.547H79.9206V270.699Z" fill="#535461"/>
<path d="M103.096 356.285L102.867 360.153L102.537 365.626L102.402 367.901L102.079 373.374L101.938 375.648L101.608 381.121L97.8906 443.192C97.729 445.863 96.5892 448.369 94.703 450.202C92.8169 452.034 90.3263 453.055 87.738 453.056H68.4093C65.8216 453.055 63.3317 452.034 61.4465 450.201C59.5613 448.369 58.4227 445.862 58.2626 443.192L54.5627 381.079L54.2333 375.605L54.0981 373.331L53.7687 367.858L53.6334 365.584L53.304 360.111L53.0687 356.243C53.0278 355.498 53.1345 354.753 53.3822 354.053C53.6299 353.353 54.0133 352.712 54.509 352.171C55.0048 351.629 55.6023 351.198 56.2649 350.904C56.9276 350.61 57.6414 350.458 58.3626 350.46H97.8965C98.6149 350.466 99.3245 350.625 99.9814 350.926C100.638 351.226 101.229 351.663 101.716 352.209C102.203 352.755 102.577 353.398 102.814 354.1C103.052 354.801 103.148 355.545 103.096 356.285Z" fill="#3F3D56"/>
<path d="M102.867 360.153L102.537 365.608H53.6098L53.2804 360.153H102.867Z" fill="#9D9CB5"/>
<path d="M102.402 367.882L102.079 373.343H54.0745L53.7451 367.882H102.402Z" fill="#9D9CB5"/>
<path d="M101.937 375.624L101.614 381.079H54.5392L54.2098 375.624H101.937Z" fill="#9D9CB5"/>
<path d="M47.6512 302.874C69.1269 318.941 78.0913 344.068 78.0913 344.068C78.0913 344.068 52.2099 343.15 30.7283 327.084C9.24673 311.017 0.299988 285.896 0.299988 285.896C0.299988 285.896 26.1696 286.808 47.6512 302.874Z" fill="#71A5FF"/>
<path d="M0.282349 285.896C0.282349 285.896 27.152 301.311 35.7693 314.076C44.3866 326.84 78.0913 344.068 78.0913 344.068" stroke="#535461" stroke-width="2" stroke-miterlimit="10"/>
<path d="M61.5154 270.51C73.2032 279.249 78.0913 292.925 78.0913 292.925C78.0913 292.925 64.0035 292.427 52.3099 283.688C40.6162 274.949 35.7399 261.267 35.7399 261.267C35.7399 261.267 49.8217 261.765 61.5154 270.51Z" fill="#71A5FF"/>
<path d="M35.7399 261.267C35.7399 261.267 50.3629 269.659 55.0509 276.603C59.739 283.548 78.0913 292.925 78.0913 292.925" stroke="#535461" stroke-width="2" stroke-miterlimit="10"/>
<path d="M95.0613 292.232C81.6323 307.49 78.7913 327.43 78.7913 327.43C78.7913 327.43 97.7259 322.626 111.143 307.362C124.56 292.098 127.413 272.164 127.413 272.164C127.413 272.164 108.49 276.974 95.0613 292.232Z" fill="#71A5FF"/>
<path d="M127.425 272.17C127.425 272.17 109.931 287.811 105.484 298.587C101.038 309.363 78.7913 327.43 78.7913 327.43" stroke="#535461" stroke-width="2" stroke-miterlimit="10"/>
<path d="M588.02 286.862C588.02 286.862 578.308 236.911 582.026 230.696C582.026 230.696 582.161 224.919 581.938 217.555C581.938 217.275 581.938 216.996 581.938 216.71C582.592 217.161 583.274 217.567 583.979 217.926C587.404 219.745 591.336 220.27 595.096 219.41L592.155 216.023C591.449 215.214 590.714 214.338 590.561 213.268C590.408 212.197 590.832 211.243 591.196 210.288C593.99 202.991 594.137 193.814 588.755 188.244C584.208 183.561 583.102 177.516 578.167 173.241C574.562 170.109 572.579 165.518 570.709 161.079C569.126 157.327 567.532 153.544 566.626 149.567C565.921 146.46 565.638 143.243 564.668 140.208C563.697 137.174 561.88 134.224 559.039 132.868C558.027 132.388 556.903 132.114 555.98 131.476C554.768 130.63 554.039 129.256 553.162 128.052C548.71 121.971 533.798 125.552 526.74 128.021C524.821 128.643 523.044 129.661 521.516 131.013L521.581 130.904C521.634 130.813 521.699 130.722 521.758 130.63C520.985 131.276 520.318 132.046 519.781 132.911C518.752 134.595 518.322 136.559 517.464 138.384C516.428 140.543 510.67 146.569 513.146 148.996C513.32 149.158 513.518 149.29 513.734 149.385C514.664 149.785 515.688 149.891 516.675 149.689L516.57 149.95C515.724 152.091 515.29 154.382 515.293 156.694C515.293 166.686 523.263 174.786 533.104 174.786C534.954 174.788 536.793 174.494 538.557 173.916C538.598 174.147 538.633 174.378 538.675 174.61C538.675 174.701 538.704 174.792 538.716 174.883L538.404 175.333C538.388 175.305 538.371 175.279 538.351 175.254L529.116 188.596C527.704 189.624 519.575 195.705 519.116 200.266C518.634 205.259 518.152 211.103 518.152 211.103L518.087 212.356C517.684 212.704 517.212 212.958 516.704 213.1C516.196 213.242 515.665 213.268 515.146 213.177C512.264 212.69 512.264 224.123 512.264 224.123C512.264 224.123 510.346 225.947 509.029 224.366C507.711 222.785 504.229 228.142 504.229 228.142L482.406 229.115L481.906 229.146L480.73 225.382C480.603 224.984 480.33 224.655 479.97 224.465C479.61 224.275 479.192 224.239 478.806 224.366C478.715 224.397 478.627 224.436 478.541 224.481L478.459 224.53L478.306 224.64L478.23 224.713C478.188 224.752 478.148 224.795 478.112 224.84L478.041 224.925L478.006 224.962C477.87 225.156 477.78 225.38 477.744 225.617C477.707 225.854 477.724 226.096 477.794 226.324L478.806 229.553C474.595 230.429 470.289 232.898 473.8 239.697L456.001 236.297L461.76 241.296L491.488 247.639C491.094 248.368 491.353 249.427 492.582 250.916C497.876 257.344 507.523 259.09 511.405 259.54C512.43 261.911 513.711 264.155 515.223 266.229L514.887 272.632C514.887 272.632 505.058 321.44 503.258 323.915C504.167 322.851 504.998 321.719 505.746 320.528C502.894 330.556 498.905 344.281 497.858 346.337C496.176 349.62 494.617 362.908 496.535 363.759C497.123 364.021 498.805 363.893 501.205 363.705V364.805L501.099 406.516C501.099 406.516 501.582 432.1 500.258 434.538C498.935 436.977 498.582 442.091 498.582 442.091C498.582 442.091 493.288 452.18 489.094 456.236C489.065 456.268 489.034 456.296 489 456.321L488.87 455.373C488.87 455.373 483.83 461.952 472.677 461.581C472.677 461.581 465.965 466.094 475.918 466.337C485.871 466.58 498.582 465.972 498.582 465.972C498.582 465.972 507.458 451.985 514.893 453.81V464.409H517.169V453.639C518.225 452.921 519.129 451.988 519.825 450.898C520.522 449.808 520.997 448.583 521.222 447.297C521.417 445.971 521.274 444.616 520.808 443.366C520.342 442.115 519.568 441.011 518.564 440.164C518.112 439.742 517.75 439.228 517.5 438.654C517.25 438.081 517.117 437.46 517.111 436.831L517.028 436.904C517.028 436.691 516.975 436.472 516.952 436.247C516.299 430.774 515.481 419.481 518.369 411.126C522.328 399.669 523.528 383.712 520.646 374.213C519.716 371.177 518.952 368.088 518.358 364.963C518.287 364.568 518.222 364.191 518.164 363.838C520.134 364.114 522.085 364.52 524.005 365.055C530.681 366.958 545.286 367.311 557.756 367.207C557.786 367.56 557.821 367.931 557.862 368.302C558.084 370.88 558.549 373.43 559.25 375.916C560.815 380.781 561.533 402.229 561.533 402.229C561.533 402.229 563.55 419.864 562.45 427.04C561.862 431.03 561.274 435.037 560.938 439.063V439.142C560.938 439.142 557.633 448.872 555.215 454.156C555.156 454.29 555.092 454.424 555.033 454.552C554.388 454.612 553.754 454.757 553.145 454.983C553.145 454.983 549.904 461.673 546.674 462.78C543.445 463.886 544.516 467.529 551.827 466.191C559.139 464.853 570.179 463.759 570.179 463.759L570.656 456.935L572.903 454.029L572.315 460.834L574.709 460.347L574.391 452.071L578.067 447.315C578.067 447.315 582.508 443.228 575.908 435.189V435.365C575.838 435.25 575.773 435.128 575.697 435.013V434.976C574.603 433.225 573.732 429.959 575.326 424.164C578.208 413.692 579.885 404.187 579.885 404.187C579.885 404.187 586.32 378.725 578.585 366.678H578.926C578.133 364.983 577.573 363.182 577.261 361.327C577.222 361.108 577.187 360.883 577.156 360.652C582.879 360.311 588.496 359.241 593.078 356.93C593.061 356.906 590.302 296.483 588.02 286.862ZM515.358 244.72V244.841L514.181 244.902L515.358 244.72ZM511.323 245.297C511.129 245.342 510.948 245.431 510.793 245.559C510.287 246.299 509.97 247.158 509.87 248.058L508.035 247.633C508.035 247.633 506.746 247.347 504.893 247.025L504.017 246.112C506.429 245.906 508.934 245.602 511.323 245.297Z" fill="url(#paint1_linear_8_31)"/>
<path d="M572.044 452.156L571.344 460.773L573.691 460.286L573.338 450.939L572.044 452.156Z" fill="#1D2366"/>
<path d="M518.499 411.241C515.67 419.573 516.47 430.817 517.105 436.278C517.34 438.297 517.558 439.525 517.558 439.525C517.558 439.525 513.328 449.486 512.976 449.863C512.623 450.24 500.529 457.872 500.529 457.872L492.076 462.974C492.076 462.974 483.5 459.088 487.612 457.75C488.452 457.402 489.209 456.868 489.829 456.187C493.947 452.143 499.117 442.091 499.117 442.091C499.117 442.091 499.47 436.989 500.764 434.563C502.058 432.136 501.588 406.638 501.588 406.638L501.688 365.073V359.654L517.775 359.776C517.877 361.616 518.109 363.445 518.469 365.249C519.047 368.364 519.795 371.442 520.711 374.468C523.546 383.949 522.369 399.827 518.499 411.241Z" fill="#FFB0B1"/>
<path opacity="0.1" d="M517.558 439.525C517.558 439.525 513.328 449.486 512.976 449.863C512.623 450.24 500.529 457.872 500.529 457.872L492.076 462.974C492.076 462.974 483.5 459.088 487.612 457.75C488.452 457.402 489.209 456.868 489.829 456.187L490.194 458.845L493.012 458.723L517.128 436.29C517.34 438.297 517.558 439.525 517.558 439.525Z" fill="black"/>
<path d="M517.264 436.855L493.012 459.441L490.194 459.563L489.606 455.306C489.606 455.306 484.677 461.861 473.724 461.496C473.724 461.496 467.148 465.99 476.895 466.234C486.641 466.477 499.088 465.869 499.088 465.869C499.088 465.869 507.782 451.882 515.058 453.706V464.269H517.293V453.609C518.332 452.886 519.219 451.953 519.901 450.866C520.582 449.779 521.043 448.561 521.258 447.285C521.451 445.97 521.314 444.626 520.86 443.382C520.406 442.138 519.649 441.036 518.664 440.182C518.223 439.755 517.872 439.24 517.631 438.668C517.391 438.096 517.266 437.479 517.264 436.855Z" fill="#1D2366"/>
<path d="M574.279 424.231C572.715 430.008 573.568 433.261 574.638 435.007V435.043C576.011 437.198 576.966 439.608 577.45 442.14L577.544 442.687L566.509 459.319L560.521 461.752C560.521 461.752 550.892 458.352 552.651 457.379C553.092 457.142 553.78 455.877 554.568 454.132C556.921 448.872 560.168 439.166 560.168 439.166V439.087C560.509 435.08 561.05 431.084 561.65 427.107C562.727 419.95 560.75 402.381 560.75 402.381C560.75 402.381 560.044 381.018 558.515 376.159C557.825 373.688 557.366 371.155 557.145 368.594C556.827 365.553 556.756 363.048 556.756 363.048C556.756 363.048 563.097 353.926 574.72 363.778C575.65 364.563 576.468 365.48 577.15 366.502C585.179 378.312 578.714 404.327 578.714 404.327C578.714 404.327 577.097 413.789 574.279 424.231Z" fill="#FFB0B1"/>
<path opacity="0.1" d="M577.561 442.687L566.527 459.319L560.539 461.752C560.539 461.752 550.909 458.352 552.668 457.379C553.109 457.142 553.798 455.877 554.586 454.132C558.662 454.096 560.774 458.109 560.774 458.109L565.938 457.258C565.938 457.258 572.75 443.417 574.279 442.572C575.809 441.726 574.514 436.253 574.514 436.253V434.861C574.556 434.909 574.591 434.964 574.638 435.013V435.049C576.011 437.204 576.966 439.614 577.45 442.146L577.561 442.687Z" fill="black"/>
<path d="M561.127 458.468C561.127 458.468 558.186 452.885 552.551 454.947C552.551 454.947 549.38 461.636 546.21 462.719C543.039 463.801 544.098 467.45 551.262 466.118C558.427 464.786 569.227 463.686 569.227 463.686L569.697 456.881L576.979 447.291C576.979 447.291 581.32 443.222 574.862 435.213V436.606C574.862 436.606 576.156 442.079 574.626 442.924C573.097 443.77 566.309 457.617 566.309 457.617L561.127 458.468Z" fill="#1D2366"/>
<path opacity="0.1" d="M517.793 359.764C517.895 361.603 518.127 363.433 518.487 365.237C511.864 364.234 505.717 364.732 501.688 365.061V359.642L517.793 359.764Z" fill="black"/>
<path opacity="0.1" d="M577.803 368.016C577.803 368.016 568.391 368.49 557.168 368.588C556.85 365.547 556.78 363.042 556.78 363.042C556.78 363.042 563.121 353.92 574.744 363.771C575.673 364.557 576.491 365.474 577.173 366.496C577.355 367.014 577.566 367.522 577.803 368.016Z" fill="black"/>
<path d="M577.803 366.921C577.803 366.921 536.581 368.983 524.016 365.34C511.452 361.698 499 364.854 497.123 364.009C495.247 363.163 496.77 349.924 498.417 346.647C500.064 343.369 509.099 310.22 509.099 310.22L517.793 263.359L526.952 260.75L527.599 260.561L543.557 256.013L555.251 252.674C555.251 252.674 578.503 346.525 576.509 353.446C575.784 356.096 575.668 358.883 576.167 361.588C576.472 363.435 577.022 365.23 577.803 366.921Z" fill="#1D2366"/>
<path d="M487.488 231.311C487.488 231.311 479.253 240.432 485.488 245.516C491.723 250.6 495.823 246.003 495.823 246.003L487.488 231.311Z" fill="#C7DAF5"/>
<path opacity="0.1" d="M487.488 231.311C487.488 231.311 479.253 240.432 485.488 245.516C491.723 250.6 495.823 246.003 495.823 246.003L487.488 231.311Z" fill="black"/>
<path d="M554.021 171.338C554.021 171.338 553.056 172.287 551.604 173.685C549.533 175.686 546.468 178.611 543.751 181.062C539.986 184.449 536.881 186.936 537.992 184.814C539.104 182.691 538.892 178.994 538.339 175.534C538.298 175.303 538.263 175.072 538.222 174.847C537.764 172.305 537.157 169.795 536.404 167.33C536.404 167.33 542.486 159.206 545.851 156.001C547.104 154.785 547.98 154.286 548.033 155.131C548.092 156.269 548.915 158.78 549.939 161.444C549.968 161.529 549.998 161.608 550.033 161.693C550.715 163.517 551.486 165.39 552.162 167.008C553.198 169.489 554.021 171.338 554.021 171.338Z" fill="#FFB0B1"/>
<path opacity="0.1" d="M550.033 161.693C549.461 164.871 548.075 167.833 546.018 170.267C543.961 172.702 541.309 174.521 538.339 175.534C537.872 172.758 537.225 170.017 536.404 167.33C536.404 167.33 547.857 152.036 548.033 155.131C548.074 156.305 548.968 158.908 550.033 161.693Z" fill="black"/>
<path opacity="0.1" d="M537.198 179.62L538.681 177.462C538.681 177.462 539.663 183.652 543.275 180.922C546.886 178.191 547.063 201.47 547.063 201.47L543.186 261.388L515.176 259.655L515.97 230.703L519.14 216.108L526.981 194.89L531.646 187.879L537.198 179.62Z" fill="black"/>
<path d="M547.063 201.841L543.533 256.019L543.163 261.759L527.546 260.792L526.957 260.756L515.193 260.026L515.987 231.067L519.158 216.473L526.999 195.255L531.663 188.244L537.216 179.955L538.698 177.802C538.698 177.802 539.68 183.993 543.292 181.262L543.369 181.208C546.898 178.897 547.063 201.841 547.063 201.841Z" fill="#1D2366"/>
<path d="M519.552 211.401C519.552 211.401 518.146 214.441 515.322 213.949C512.499 213.456 512.505 224.895 512.505 224.895C512.505 224.895 510.629 226.719 509.334 225.138C508.04 223.557 504.629 228.903 504.629 228.903L483.253 229.876C483.253 229.876 492.764 234.37 490.9 247.967C490.9 247.967 523.193 245.899 524.252 242.743C525.31 239.587 519.552 211.401 519.552 211.401Z" fill="white"/>
<path opacity="0.03" d="M519.552 211.401C519.552 211.401 518.146 214.441 515.322 213.949C512.499 213.456 512.505 224.895 512.505 224.895C512.505 224.895 510.629 226.719 509.334 225.138C508.04 223.557 504.629 228.903 504.629 228.903L483.253 229.876C483.253 229.876 492.764 234.37 490.9 247.967C490.9 247.967 523.193 245.899 524.252 242.743C525.31 239.587 519.552 211.401 519.552 211.401Z" fill="black"/>
<path d="M457.43 237.021L463.066 241.995L509.452 252.072L503.699 246.003L457.43 237.021Z" fill="white"/>
<path d="M537.286 181.536C536.516 182.752 534.31 188.979 532.469 194.416C530.934 198.947 529.651 202.93 529.651 202.93C529.651 202.93 526.657 223.083 525.128 226.725C523.599 230.368 524.428 244.574 524.428 244.574L518.728 279.656C518.728 279.656 516.146 297.748 512.158 308.554C508.223 319.19 503.84 324.177 503.705 324.335C505.47 321.866 515.087 273.253 515.087 273.253L518.263 211.942C518.263 211.942 518.728 206.116 519.199 201.136C519.669 196.155 529.198 189.356 529.198 189.356L538.386 175.85C539.31 177.127 538.692 179.353 537.286 181.536Z" fill="white"/>
<path d="M513.328 260.33C513.328 260.33 499.8 259.722 493.247 251.585C486.694 243.449 508.393 248.338 508.393 248.338L514.034 249.676L513.328 260.33Z" fill="#FFB0B1"/>
<path opacity="0.1" d="M576.509 353.452C575.784 356.102 575.668 358.89 576.167 361.594C561.409 362.677 545.621 358.554 545.621 358.554C542.68 361.351 534.934 365.474 534.934 365.474L530.71 311.351C528.01 304.054 526.952 265.821 526.952 265.821C526.952 265.821 527.193 263.821 527.54 260.823C527.54 260.75 527.54 260.671 527.569 260.598C528.622 252.224 530.71 236.504 531.734 234.382C533.145 231.463 527.393 223.697 527.393 223.697L530.01 200.619L530.328 197.834C535.845 195.286 540.075 187.149 540.075 187.149L543.322 181.268C546.851 178.927 547.033 201.872 547.033 201.872L543.504 256.049L555.198 252.71C555.198 252.71 578.503 346.531 576.509 353.452Z" fill="black"/>
<path d="M591.655 357.192C575.567 365.45 546.327 357.8 546.327 357.8C543.386 360.597 535.639 364.72 535.639 364.72L531.41 310.597C528.716 303.3 527.657 265.067 527.657 265.067C527.657 265.067 531.057 236.541 532.469 233.628C532.881 232.776 532.681 231.511 532.192 230.149C529.792 223.666 528.909 216.687 529.616 209.783L530.745 199.865L531.057 197.086C536.58 194.532 540.81 186.395 540.81 186.395L543.751 181.068L549.162 171.253L551.727 166.607L552.162 167.014L555.486 170.128C555.486 170.128 556.897 171.344 559.015 173.168C563.621 177.182 571.579 184.248 575.685 188.572C579.297 192.379 580.438 207.187 580.767 218.333C580.985 225.673 580.855 231.426 580.855 231.426C577.214 237.623 586.737 287.373 586.737 287.373C588.955 296.988 591.655 357.192 591.655 357.192Z" fill="white"/>
<path opacity="0.03" d="M560.774 186.273C560.774 186.273 549.733 208.001 551.015 216.26C552.298 224.518 555.944 233.865 554.186 236.048C553.581 236.875 552.8 237.546 551.903 238.01C551.006 238.473 550.018 238.715 549.015 238.718C547.251 238.839 542.545 242.239 542.545 242.603C542.545 242.968 538.198 242.968 534.31 244.671C530.422 246.374 524.681 247.341 524.681 247.341C524.681 247.341 513.505 246.976 512.464 248.07C511.423 249.165 510.352 255.715 512.581 260.938C514.811 266.162 517.287 270.06 519.158 270.772C521.028 271.483 532.898 267.372 542.527 266.399C552.156 265.426 562.609 257.539 562.609 257.539C562.609 257.539 574.12 253.282 576.138 246.124C578.155 238.967 573.673 199.628 573.673 199.628C573.673 199.628 570.285 181.293 560.774 186.273Z" fill="black"/>
<path opacity="0.03" d="M559.362 184.449C559.362 184.449 548.321 206.183 549.615 214.435C550.91 222.688 554.545 232.04 552.78 234.23C552.178 235.058 551.398 235.73 550.502 236.193C549.606 236.656 548.618 236.898 547.615 236.899C545.851 237.021 541.145 240.42 541.145 240.785C541.145 241.15 536.798 241.15 532.91 242.847C529.022 244.543 523.281 245.516 523.281 245.516C523.281 245.516 512.105 245.152 511.07 246.246C510.035 247.341 508.952 253.896 511.187 259.114C513.423 264.332 515.893 268.236 517.764 268.947C519.634 269.659 531.504 265.548 541.133 264.581C550.762 263.614 561.215 255.715 561.215 255.715C561.215 255.715 572.721 251.458 574.715 244.306C576.709 237.155 572.25 197.803 572.25 197.803C572.25 197.803 568.874 179.475 559.362 184.449Z" fill="black"/>
<path d="M560.427 185.179C560.427 185.179 549.386 206.913 550.68 215.165C551.974 223.417 555.609 232.77 553.851 234.953C553.248 235.783 552.468 236.457 551.571 236.921C550.673 237.386 549.684 237.628 548.68 237.629C546.915 237.751 542.21 241.15 542.21 241.509C542.21 241.868 537.869 241.874 533.975 243.576C530.081 245.279 524.346 246.246 524.346 246.246C524.346 246.246 513.17 245.881 512.129 246.976C511.087 248.07 510.017 254.626 512.246 259.844C514.475 265.061 516.952 268.965 518.822 269.677C520.693 270.388 532.563 266.278 542.192 265.305C551.821 264.332 562.274 256.444 562.274 256.444C562.274 256.444 573.785 252.187 575.803 245.03C577.82 237.872 573.367 198.533 573.367 198.533C573.367 198.533 569.932 180.229 560.427 185.179Z" fill="white"/>
<path opacity="0.1" d="M560.186 243.473C560.186 243.473 551.362 241.649 554.433 244.689C557.503 247.73 557.486 250.394 561.244 250.272C565.003 250.15 560.186 243.473 560.186 243.473Z" fill="black"/>
<path opacity="0.1" d="M575.097 308.895C575.097 308.895 571.109 311.686 578.738 318.12C586.367 324.554 575.097 308.895 575.097 308.895Z" fill="black"/>
<path opacity="0.1" d="M567.485 331.839C567.485 332.204 566.074 345.218 571.356 348.471C576.638 351.725 567.485 331.839 567.485 331.839Z" fill="black"/>
<path d="M483.618 229.845C479.359 229.997 470.159 231.341 474.93 240.542C479.147 248.685 486.235 243.242 490.223 239.113C489.251 235.263 486.886 231.946 483.618 229.845Z" fill="#FFB0B1"/>
<path opacity="0.1" d="M559.015 173.539C554.498 176.732 550.709 179.426 549.968 179.985C547.945 181.536 544.086 190.64 541.598 195.286C539.616 199.026 533.175 199.986 530.745 200.224L531.057 197.444C536.581 194.89 540.81 186.754 540.81 186.754L551.727 166.965L555.486 170.499C555.486 170.499 556.897 171.715 559.015 173.539Z" fill="black"/>
<path d="M559.015 173.174C554.498 176.367 550.709 179.061 549.968 179.627C547.945 181.171 544.086 190.275 541.598 194.921C539.616 198.661 533.175 199.622 530.745 199.859L531.057 197.08C536.581 194.525 540.81 186.389 540.81 186.389L551.727 166.601L555.486 170.122C555.486 170.122 556.897 171.326 559.015 173.174Z" fill="#DCE7FF"/>
<path d="M550.321 157.68C550.324 161.33 549.253 164.895 547.251 167.902C544.886 171.457 541.367 174.018 537.332 175.121C533.298 176.223 529.014 175.794 525.259 173.91C521.505 172.027 518.527 168.814 516.867 164.856C515.208 160.897 514.976 156.454 516.213 152.334C517.451 148.213 520.076 144.688 523.613 142.397C527.15 140.107 531.364 139.203 535.49 139.85C539.616 140.496 543.382 142.651 546.103 145.922C548.824 149.193 550.321 153.365 550.321 157.68Z" fill="#FFB0B1"/>
<path opacity="0.1" d="M580.767 218.339C578.378 216.82 576.433 214.66 575.138 212.088C574.156 210.081 573.503 207.764 571.826 206.341C570.315 205.064 568.297 204.754 566.415 204.182C560.227 202.291 555.039 196.453 554.845 189.788C554.751 186.65 555.698 183.518 555.268 180.411C555.024 178.652 554.348 176.988 553.304 175.576C552.785 174.901 552.217 174.269 551.604 173.685C550.78 172.882 549.915 172.104 549.163 171.253C548.688 170.726 548.274 170.144 547.927 169.52C547.648 169.009 547.421 168.468 547.251 167.908C546.074 164.186 547.145 159.771 545.851 156.007L545.78 155.8C545.292 154.463 544.298 153.125 542.916 153.021C541.533 152.918 540.351 154.104 539.033 154.633C536.275 155.74 533.298 153.854 530.998 151.933C528.699 150.011 526.105 147.816 523.181 148.241C521.246 148.527 519.717 149.889 517.934 150.595C517.532 150.756 517.117 150.88 516.693 150.966C518.201 147.077 520.973 143.853 524.531 141.847C528.089 139.841 532.211 139.178 536.19 139.973C540.17 140.768 543.757 142.971 546.335 146.204C548.914 149.436 550.323 153.496 550.321 157.686C550.323 158.951 550.195 160.213 549.939 161.45C549.968 161.535 549.998 161.614 550.033 161.699C550.715 163.524 551.486 165.397 552.162 167.014L555.486 170.128C555.486 170.128 556.898 171.344 559.015 173.168C563.621 177.182 571.579 184.248 575.685 188.572C579.297 192.391 580.426 207.193 580.767 218.339Z" fill="black"/>
<path d="M517.728 139.485C518.569 137.715 518.987 135.732 519.993 134.054C521.469 131.622 524.046 130.065 526.693 129.122C533.604 126.659 548.21 123.084 552.574 129.122C553.433 130.338 554.145 131.688 555.333 132.528C556.239 133.166 557.333 133.44 558.327 133.92C561.109 135.27 562.885 138.214 563.833 141.218C564.78 144.222 565.062 147.445 565.756 150.54C566.644 154.511 568.203 158.275 569.756 162.015C571.585 166.43 573.526 171.009 577.056 174.129C581.873 178.386 582.938 184.412 587.408 189.083C592.702 194.629 592.531 203.781 589.802 211.048C589.443 212.003 589.038 213 589.179 214.016C589.32 215.031 590.049 215.956 590.737 216.764L593.631 220.14C586.785 221.848 579.038 218.151 575.85 211.662C574.867 209.656 574.215 207.345 572.532 205.916C571.026 204.639 569.003 204.334 567.127 203.763C560.939 201.866 555.75 196.021 555.556 189.356C555.462 186.225 556.409 183.093 555.98 179.991C555.741 178.221 555.062 176.545 554.009 175.126C552.392 172.943 549.951 171.478 548.633 169.045C546.404 164.977 548.098 159.692 546.492 155.326C545.998 153.988 545.01 152.65 543.627 152.547C542.245 152.444 541.063 153.629 539.739 154.158C536.986 155.265 534.01 153.386 531.71 151.458C529.41 149.531 526.816 147.341 523.887 147.773C521.952 148.053 520.428 149.415 518.646 150.127C517.328 150.65 514.658 151.118 513.505 149.969C511.07 147.652 516.711 141.649 517.728 139.485Z" fill="#591D4B"/>
<path opacity="0.1" d="M577.485 209.656C576.497 207.649 575.85 205.338 574.167 203.915C572.661 202.638 570.638 202.328 568.756 201.756C562.574 199.865 557.386 194.021 557.186 187.356C557.091 184.224 558.038 181.086 557.615 177.985C557.369 176.225 556.69 174.561 555.644 173.15C554.021 170.967 551.58 169.501 550.268 167.069C548.039 163.007 549.733 157.722 548.121 153.35C547.633 152.018 546.639 150.68 545.262 150.571C543.886 150.461 542.692 151.659 541.374 152.188C538.622 153.295 535.639 151.41 533.345 149.488C531.051 147.566 528.445 145.371 525.522 145.797C523.587 146.083 522.057 147.445 520.281 148.15C518.963 148.673 516.287 149.148 515.134 147.998C512.711 145.566 518.352 139.576 519.363 137.423C520.205 135.647 520.622 133.671 521.634 131.992C521.687 131.901 521.746 131.81 521.805 131.719C521.048 132.367 520.395 133.135 519.869 133.993C518.863 135.672 518.446 137.642 517.605 139.424C516.587 141.576 510.946 147.585 513.375 149.999C514.552 151.154 517.199 150.68 518.516 150.157C520.281 149.446 521.822 148.083 523.757 147.804C526.698 147.372 529.287 149.567 531.581 151.489C533.875 153.41 536.875 155.296 539.616 154.189C540.933 153.66 542.086 152.468 543.498 152.577C544.91 152.687 545.851 154.019 546.362 155.356C547.968 159.723 546.274 165.007 548.504 169.076C549.821 171.466 552.262 172.962 553.88 175.157C554.932 176.575 555.611 178.251 555.85 180.022C556.28 183.123 555.333 186.255 555.427 189.387C555.621 196.076 560.809 201.896 566.997 203.793C568.862 204.365 570.897 204.669 572.403 205.946C574.091 207.375 574.756 209.686 575.72 211.693C578.908 218.181 586.655 221.879 593.502 220.17L592.137 218.577C586.202 218.668 580.197 215.177 577.485 209.656Z" fill="black"/>
<path opacity="0.1" d="M536.933 181.901C536.163 183.117 533.957 189.344 532.116 194.781C530.393 194.088 528.828 189.667 528.828 189.667L538.016 176.154C538.957 177.492 538.339 179.712 536.933 181.901Z" fill="black"/>
<path d="M537.286 181.536C536.516 182.752 534.31 188.979 532.469 194.416C530.746 193.729 529.181 189.302 529.181 189.302L538.369 175.795C539.31 177.127 538.692 179.353 537.286 181.536Z" fill="#DCE7FF"/>
<path d="M483.865 243.662L478.771 227.054C478.711 226.859 478.688 226.655 478.704 226.451C478.721 226.248 478.776 226.049 478.867 225.868C478.958 225.687 479.082 225.526 479.233 225.394C479.384 225.263 479.559 225.163 479.747 225.102C480.126 224.979 480.537 225.017 480.889 225.206C481.242 225.395 481.508 225.72 481.63 226.111L486.723 242.701L486.218 246.173L483.865 243.662Z" fill="#BE8B87"/>
<path opacity="0.1" d="M479.253 225.594C479.633 225.47 480.045 225.507 480.399 225.696C480.753 225.885 481.02 226.212 481.141 226.604L486.235 243.193L485.853 245.796L486.224 246.197L486.73 242.725L481.606 226.136C481.485 225.745 481.219 225.419 480.866 225.23C480.513 225.041 480.103 225.004 479.724 225.126C479.405 225.233 479.13 225.447 478.942 225.734C479.042 225.679 479.146 225.632 479.253 225.594Z" fill="white"/>
<path d="M483.865 243.662L486.723 242.725L486.306 245.571L486.218 246.197L485.382 245.297L483.865 243.662Z" fill="#EFC8C4"/>
<path d="M485.382 245.297C485.432 245.232 485.494 245.179 485.565 245.139C485.606 245.112 485.654 245.098 485.703 245.098C485.752 245.098 485.8 245.112 485.841 245.139C485.881 245.189 485.915 245.245 485.941 245.304C485.98 245.371 486.033 245.428 486.096 245.471C486.159 245.514 486.231 245.542 486.306 245.553L486.218 246.161L485.382 245.297Z" fill="#727A9C"/>
<path d="M478.741 232.953C478.741 232.953 488.959 232.892 486.553 237.386C484.147 241.88 480.388 242.421 480.388 242.421L478.741 232.953Z" fill="#FFB0B1"/>
<path d="M415.197 31.2695H414.756C397.203 31.2695 381.68 40.8718 372.751 55.041C363.822 40.8718 348.299 31.2695 330.747 31.2695H330.306C317.133 31.3993 304.542 36.8983 295.27 46.5715C285.997 56.2447 280.791 69.3104 280.784 82.9293C280.784 99.8412 287.948 123.838 301.918 143.583C328.535 181.208 372.751 214.125 372.751 214.125C372.751 214.125 416.967 181.214 443.578 143.583C457.554 123.838 464.713 99.8412 464.713 82.9293C464.705 69.3115 459.501 56.2467 450.229 46.5736C440.957 36.9006 428.368 31.4009 415.197 31.2695ZM408.885 146.478C406.886 146.47 404.936 145.837 403.291 144.663C401.646 143.489 400.383 141.828 399.668 139.898H389.174C388.483 139.894 387.811 139.666 387.251 139.248C386.691 138.829 386.271 138.24 386.051 137.563L382.827 127.523L372.628 164.369C372.429 165.078 372.013 165.702 371.443 166.146C370.872 166.59 370.177 166.831 369.463 166.832H369.257C368.512 166.794 367.802 166.494 367.245 165.98C366.688 165.467 366.319 164.771 366.198 164.01L355.687 98.6493L348.005 137.326C347.829 138.06 347.42 138.713 346.843 139.179C346.266 139.645 345.555 139.899 344.823 139.898H330.041C329.598 139.917 329.156 139.844 328.741 139.682C328.326 139.52 327.947 139.273 327.627 138.956C327.306 138.638 327.052 138.257 326.878 137.836C326.704 137.414 326.614 136.96 326.614 136.502C326.614 136.043 326.704 135.589 326.878 135.168C327.052 134.746 327.306 134.365 327.627 134.048C327.947 133.73 328.326 133.483 328.741 133.321C329.156 133.159 329.598 133.086 330.041 133.105H342.235L353.117 81.105C353.295 80.3362 353.727 79.6554 354.337 79.179C354.947 78.7026 355.699 78.4602 356.463 78.4933C357.227 78.5263 357.956 78.8327 358.526 79.3601C359.096 79.8875 359.471 80.6032 359.587 81.3847L370.322 148.059L379.463 115.093C379.653 114.399 380.055 113.786 380.61 113.348C381.164 112.91 381.841 112.668 382.539 112.66H382.604C383.295 112.661 383.969 112.886 384.528 113.306C385.088 113.725 385.506 114.316 385.721 114.996L391.551 133.124H399.538C400.106 131.34 401.14 129.753 402.525 128.538C403.91 127.323 405.593 126.527 407.388 126.239C409.183 125.951 411.02 126.18 412.697 126.903C414.374 127.626 415.824 128.814 416.889 130.335C417.954 131.857 418.592 133.653 418.732 135.525C418.872 137.397 418.509 139.273 417.682 140.946C416.856 142.618 415.599 144.022 414.05 145.003C412.501 145.983 410.719 146.502 408.903 146.502L408.885 146.478Z" fill="#71A5FF"/>
</g>
<defs>
<linearGradient id="paint0_linear_8_31" x1="209.598" y1="471.214" x2="209.598" y2="97.0134" gradientUnits="userSpaceOnUse">
<stop stop-color="#808080" stop-opacity="0.25"/>
<stop offset="0.54" stop-color="#808080" stop-opacity="0.12"/>
<stop offset="1" stop-color="#808080" stop-opacity="0.1"/>
</linearGradient>
<linearGradient id="paint1_linear_8_31" x1="525.528" y1="466.483" x2="525.528" y2="124.719" gradientUnits="userSpaceOnUse">
<stop stop-color="#808080" stop-opacity="0.25"/>
<stop offset="0.54" stop-color="#808080" stop-opacity="0.12"/>
<stop offset="1" stop-color="#808080" stop-opacity="0.1"/>
</linearGradient>
<clipPath id="clip0_8_31">
<rect width="650" height="476" fill="white"/>
</clipPath>
</defs>
</svg>
