<svg width="649" height="478" viewBox="0 0 649 478" fill="none" xmlns="http://www.w3.org/2000/svg">
<g clip-path="url(#clip0_8_198)">
<path d="M240.554 294.516L106.205 322.788C102.323 323.6 98.2762 322.842 94.953 320.679C91.6298 318.517 89.3015 315.126 88.4789 311.252L65.425 202.06C64.6112 198.184 65.3706 194.143 67.5368 190.826C69.7029 187.508 73.0989 185.184 76.9795 184.362L211.328 156.091C215.21 155.278 219.257 156.037 222.58 158.199C225.904 160.362 228.232 163.752 229.054 167.626L252.108 276.819C252.922 280.695 252.163 284.735 249.997 288.053C247.83 291.371 244.435 293.695 240.554 294.516ZM77.3426 186.082C73.9185 186.807 70.9221 188.858 69.0108 191.785C67.0995 194.712 66.4293 198.277 67.1474 201.697L90.2014 310.89C90.9271 314.308 92.9815 317.3 95.9138 319.208C98.846 321.116 102.417 321.785 105.842 321.068L240.191 292.797C243.615 292.072 246.611 290.021 248.523 287.094C250.434 284.166 251.104 280.602 250.386 277.181L227.332 167.989C226.606 164.57 224.552 161.579 221.62 159.671C218.687 157.763 215.117 157.094 211.691 157.811L77.3426 186.082Z" fill="#3F3D56"/>
<path d="M202.981 192.095L135.177 206.363C134.583 206.501 133.96 206.408 133.432 206.104C132.905 205.8 132.512 205.308 132.334 204.726C132.253 204.423 132.235 204.106 132.28 203.795C132.325 203.485 132.434 203.186 132.598 202.919C132.763 202.651 132.98 202.42 133.237 202.239C133.494 202.058 133.786 201.932 134.093 201.867L203.114 187.343C205.809 188.859 204.957 191.679 202.98 192.095L202.981 192.095Z" fill="#CCCCCC"/>
<path d="M205.487 203.968L137.684 218.237C137.09 218.374 136.467 218.282 135.939 217.978C135.411 217.674 135.019 217.181 134.841 216.6C134.76 216.296 134.741 215.98 134.787 215.669C134.832 215.358 134.94 215.06 135.105 214.792C135.27 214.525 135.487 214.294 135.744 214.113C136.001 213.932 136.293 213.805 136.6 213.74L205.621 199.216C208.315 200.732 207.465 203.552 205.487 203.968Z" fill="#CCCCCC"/>
<path d="M124.453 228.082L103.76 232.436C103.084 232.578 102.38 232.446 101.802 232.069C101.223 231.693 100.818 231.103 100.675 230.428L95.5275 206.049C95.3858 205.374 95.5179 204.671 95.895 204.094C96.272 203.516 96.8632 203.112 97.5387 202.969L118.232 198.614C118.908 198.473 119.612 198.605 120.19 198.981C120.769 199.358 121.174 199.948 121.317 200.622L126.464 225.001C126.606 225.676 126.474 226.379 126.097 226.957C125.72 227.534 125.129 227.939 124.453 228.082Z" fill="#CCCCCC"/>
<path d="M210.423 228.321L106.942 250.097C106.349 250.235 105.725 250.142 105.197 249.838C104.67 249.534 104.278 249.042 104.1 248.46C104.018 248.157 104 247.84 104.045 247.529C104.091 247.219 104.199 246.92 104.363 246.653C104.528 246.385 104.745 246.154 105.003 245.973C105.26 245.792 105.551 245.666 105.859 245.601L210.557 223.569C213.252 225.085 212.4 227.905 210.423 228.321Z" fill="#CCCCCC"/>
<path d="M212.931 240.198L109.45 261.974C108.856 262.112 108.233 262.019 107.705 261.715C107.177 261.411 106.785 260.919 106.607 260.337C106.526 260.034 106.507 259.717 106.553 259.406C106.598 259.096 106.706 258.798 106.871 258.53C107.036 258.262 107.253 258.031 107.51 257.85C107.767 257.669 108.059 257.543 108.366 257.478L213.065 235.446C215.76 236.962 214.908 239.782 212.931 240.198Z" fill="#CCCCCC"/>
<path d="M215.437 252.068L111.956 273.844C111.362 273.981 110.739 273.889 110.211 273.585C109.683 273.281 109.291 272.788 109.113 272.207C109.032 271.903 109.013 271.587 109.059 271.276C109.104 270.965 109.212 270.667 109.377 270.399C109.542 270.132 109.759 269.9 110.016 269.72C110.273 269.539 110.565 269.412 110.872 269.347L215.571 247.315C218.266 248.831 217.414 251.652 215.437 252.068Z" fill="#CCCCCC"/>
<path d="M217.944 263.944L114.463 285.72C113.87 285.857 113.246 285.765 112.719 285.461C112.191 285.157 111.799 284.664 111.621 284.083C111.539 283.779 111.521 283.463 111.566 283.152C111.612 282.841 111.72 282.543 111.884 282.275C112.049 282.008 112.267 281.777 112.524 281.596C112.781 281.415 113.072 281.288 113.38 281.223L218.078 259.191C220.773 260.708 219.921 263.528 217.944 263.944Z" fill="#CCCCCC"/>
<path d="M220.45 275.814L116.969 297.59C116.376 297.727 115.752 297.635 115.225 297.331C114.697 297.027 114.305 296.535 114.127 295.953C114.046 295.65 114.027 295.333 114.072 295.022C114.118 294.711 114.226 294.413 114.391 294.146C114.555 293.878 114.773 293.647 115.03 293.466C115.287 293.285 115.578 293.158 115.886 293.094L220.584 271.062C223.279 272.578 222.427 275.398 220.45 275.814Z" fill="#CCCCCC"/>
<path d="M236.957 221.453C236.722 221.879 236.521 222.323 236.355 222.78L193.992 233.275L186.622 225.664L173.662 235.266L185.397 250.007C186.345 251.197 187.654 252.049 189.129 252.434C190.603 252.819 192.162 252.715 193.573 252.14L239.541 233.387C241.052 234.497 242.866 235.122 244.741 235.178C246.617 235.235 248.465 234.719 250.039 233.701C251.614 232.683 252.841 231.211 253.557 229.48C254.274 227.749 254.445 225.841 254.048 224.01C253.652 222.179 252.707 220.512 251.338 219.231C249.97 217.95 248.243 217.115 246.387 216.837C244.532 216.56 242.636 216.853 240.951 217.677C239.267 218.502 237.873 219.819 236.957 221.453Z" fill="#FFB8B8"/>
<path d="M92.3541 314.85C93.6748 314.442 94.8901 313.751 95.9142 312.824C96.9383 311.898 97.7465 310.758 98.2817 309.486C98.8169 308.213 99.0661 306.839 99.0119 305.46C98.9577 304.081 98.6013 302.731 97.9678 301.505L127.121 220.607L106.875 217.025L84.5845 297.671C82.5911 298.87 81.1076 300.757 80.415 302.975C79.7223 305.193 79.8687 307.588 80.8264 309.706C81.7842 311.823 83.4866 313.516 85.6112 314.464C87.7359 315.412 90.135 315.55 92.3541 314.85Z" fill="#FFB8B8"/>
<path d="M123.419 234.967L103.429 227.308C102.86 227.09 102.345 226.752 101.919 226.318C101.493 225.883 101.165 225.362 100.959 224.79C100.753 224.218 100.672 223.608 100.724 223.002C100.775 222.395 100.956 221.807 101.255 221.278L111.742 202.715C112.876 199.817 115.115 197.487 117.967 196.234C120.82 194.981 124.053 194.908 126.959 196.031C129.865 197.155 132.207 199.382 133.471 202.226C134.734 205.07 134.817 208.298 133.701 211.203L129.076 231.937C128.943 232.531 128.684 233.089 128.316 233.574C127.948 234.058 127.479 234.458 126.942 234.745C126.406 235.033 125.813 235.202 125.205 235.24C124.597 235.278 123.988 235.185 123.419 234.967Z" fill="#71A5FF"/>
<path d="M168.539 466.731H179.329L184.462 425.18L168.537 425.181L168.539 466.731Z" fill="#FFB8B8"/>
<path d="M165.786 463.214L187.036 463.213H187.037C188.815 463.213 190.576 463.563 192.219 464.242C193.862 464.922 195.355 465.918 196.613 467.173C197.87 468.428 198.868 469.919 199.548 471.559C200.229 473.199 200.579 474.957 200.579 476.733V477.172L165.787 477.173L165.786 463.214Z" fill="#2F2E41"/>
<path d="M107.81 466.731H118.599L123.733 425.18L107.808 425.181L107.81 466.731Z" fill="#FFB8B8"/>
<path d="M105.057 463.214L126.307 463.213H126.308C128.086 463.213 129.847 463.563 131.49 464.242C133.133 464.922 134.626 465.918 135.884 467.173C137.141 468.428 138.139 469.919 138.819 471.559C139.5 473.199 139.85 474.957 139.85 476.733V477.172L105.058 477.173L105.057 463.214Z" fill="#2F2E41"/>
<path d="M119.122 450.007H105.467C104.931 450.007 104.4 449.899 103.908 449.688C103.415 449.478 102.97 449.169 102.601 448.782C102.231 448.395 101.943 447.937 101.756 447.435C101.569 446.934 101.485 446.4 101.511 445.866L107.997 306.743L108.405 306.732L174.344 305.016L187.247 444.218C187.297 444.74 187.242 445.266 187.086 445.767C186.93 446.267 186.676 446.732 186.338 447.133C186.001 447.535 185.587 447.866 185.12 448.106C184.653 448.346 184.144 448.492 183.62 448.533L168.283 449.758C167.319 449.834 166.361 449.557 165.588 448.977C164.816 448.397 164.282 447.556 164.087 446.61L144.469 347.516C144.415 347.215 144.255 346.943 144.018 346.75C143.781 346.557 143.482 346.455 143.176 346.463H143.171C142.863 346.456 142.564 346.56 142.327 346.755C142.09 346.95 141.931 347.224 141.88 347.527L123.008 446.817C122.829 447.715 122.344 448.524 121.636 449.106C120.927 449.687 120.039 450.006 119.122 450.007Z" fill="#2F2E41"/>
<path d="M144.135 182.663C156.073 182.663 165.752 173.001 165.752 161.082C165.752 149.163 156.073 139.501 144.135 139.501C132.196 139.501 122.518 149.163 122.518 161.082C122.518 173.001 132.196 182.663 144.135 182.663Z" fill="#FFB8B8"/>
<path d="M136.886 323.046C126.583 323.046 116.001 320.343 107.228 312.349C106.761 311.926 106.4 311.4 106.176 310.812C105.951 310.224 105.868 309.592 105.934 308.966C106.873 300.543 111.428 257.053 108.863 228.002C108.362 222.575 109.132 217.107 111.111 212.029C113.09 206.95 116.224 202.4 120.266 198.738C124.237 195.084 129.004 192.401 134.192 190.902C139.379 189.402 144.844 189.127 150.157 190.097C150.426 190.145 150.695 190.196 150.965 190.247C168.271 193.591 180.296 209.581 178.935 227.442C176.95 253.504 175.17 288.756 177.965 308.692C178.081 309.507 177.938 310.338 177.557 311.069C177.176 311.8 176.575 312.393 175.839 312.766C169.481 315.973 153.549 323.046 136.886 323.046Z" fill="#71A5FF"/>
<path d="M165.094 236.52C164.587 236.183 164.158 235.741 163.838 235.224C163.517 234.707 163.313 234.126 163.237 233.523L160.604 212.443C159.768 209.446 160.156 206.239 161.685 203.527C163.213 200.815 165.756 198.819 168.756 197.976C171.757 197.133 174.97 197.512 177.69 199.03C180.411 200.548 182.418 203.082 183.271 206.075L191.945 225.547C192.193 226.103 192.318 226.705 192.311 227.314C192.304 227.922 192.166 228.521 191.907 229.071C191.647 229.622 191.271 230.109 190.806 230.502C190.34 230.894 189.795 231.181 189.208 231.344L168.58 237.075C167.994 237.238 167.378 237.273 166.776 237.178C166.175 237.082 165.601 236.858 165.094 236.52Z" fill="#71A5FF"/>
<path d="M136.588 182.359C134.542 182.396 132.509 182.029 130.606 181.278C129.769 180.956 128.899 180.691 128.064 180.369C120.682 177.522 115.82 169.673 115.646 161.775C115.472 153.877 119.569 146.212 125.652 141.16C131.736 136.108 139.615 133.514 147.506 132.914C156.005 132.268 165.575 134.42 170.324 141.486C171.588 143.367 172.472 145.649 171.723 147.92C171.499 148.606 171.098 149.22 170.561 149.702C168.44 151.586 166.326 150.17 164.164 150.044C161.192 149.872 158.523 152.274 157.564 155.087C156.604 157.9 157.026 160.998 157.801 163.867C158.391 165.594 158.763 167.387 158.908 169.206C158.971 170.118 158.799 171.031 158.409 171.858C158.02 172.685 157.425 173.399 156.681 173.932C154.824 175.053 152.385 174.404 150.527 173.285C148.669 172.166 147.063 170.611 145.056 169.787C143.049 168.964 140.353 169.147 139.185 170.972C138.813 171.637 138.562 172.361 138.442 173.112C137.395 177.876 137.636 177.595 136.588 182.359Z" fill="#2F2E41"/>
<path d="M436.008 152.89H298.708C294.741 152.885 290.938 151.31 288.133 148.51C285.328 145.709 283.75 141.913 283.745 137.952V26.3604C283.75 22.4 285.328 18.6032 288.133 15.8029C290.938 13.0025 294.741 11.4273 298.708 11.4229H436.008C439.975 11.4273 443.778 13.0025 446.583 15.8029C449.388 18.6032 450.966 22.4 450.97 26.3604V137.952C450.966 141.913 449.388 145.709 446.583 148.51C443.778 151.31 439.975 152.885 436.008 152.89ZM298.708 13.1802C295.207 13.1842 291.852 14.574 289.377 17.0449C286.902 19.5158 285.51 22.866 285.506 26.3604V137.952C285.51 141.447 286.902 144.797 289.377 147.268C291.852 149.739 295.207 151.128 298.708 151.132H436.008C439.508 151.128 442.864 149.739 445.339 147.268C447.814 144.797 449.206 141.447 449.21 137.952V26.3604C449.206 22.866 447.814 19.5158 445.339 17.0449C442.864 14.574 439.508 13.1842 436.008 13.1802H298.708Z" fill="#3F3D56"/>
<path d="M420.402 44.9337H351.108C350.499 44.9461 349.908 44.7271 349.455 44.3211C349.001 43.9151 348.719 43.3524 348.665 42.7467C348.649 42.4331 348.696 42.1194 348.804 41.8247C348.913 41.53 349.08 41.2605 349.297 41.0326C349.513 40.8046 349.774 40.6231 350.063 40.4991C350.352 40.375 350.663 40.311 350.977 40.311H421.514C423.838 42.3496 422.423 44.9337 420.402 44.9337Z" fill="#CCCCCC"/>
<path d="M420.402 57.0683H351.108C350.499 57.0806 349.908 56.8617 349.455 56.4557C349.001 56.0497 348.719 55.4869 348.665 54.8812C348.649 54.5676 348.696 54.2539 348.804 53.9592C348.913 53.6645 349.08 53.395 349.297 53.1671C349.513 52.9392 349.774 52.7577 350.063 52.6336C350.352 52.5095 350.663 52.4456 350.977 52.4456H421.514C423.838 54.4841 422.423 57.0683 420.402 57.0683Z" fill="#CCCCCC"/>
<path d="M336.129 63.9773H314.981C314.29 63.9766 313.628 63.7025 313.14 63.215C312.652 62.7276 312.377 62.0667 312.376 61.3773V36.4624C312.377 35.7731 312.652 35.1122 313.14 34.6247C313.628 34.1373 314.29 33.8631 314.981 33.8624H336.129C336.819 33.8634 337.481 34.1376 337.969 34.625C338.457 35.1124 338.732 35.7732 338.733 36.4624V61.3773C338.732 62.0667 338.458 62.7276 337.969 63.215C337.481 63.7025 336.819 63.9766 336.129 63.9773Z" fill="#3F3D56"/>
<path d="M420.201 81.9138H314.446C313.837 81.9261 313.246 81.7072 312.792 81.3012C312.339 80.8952 312.056 80.3325 312.003 79.7268C311.986 79.4132 312.033 79.0995 312.142 78.8048C312.25 78.5101 312.418 78.2406 312.634 78.0127C312.85 77.7847 313.111 77.6032 313.4 77.4792C313.689 77.3551 314 77.2911 314.315 77.2911H421.313C423.637 79.3297 422.221 81.9138 420.201 81.9138Z" fill="#CCCCCC"/>
<path d="M420.201 94.0518H314.446C313.837 94.0641 313.246 93.8452 312.792 93.4392C312.339 93.0332 312.056 92.4704 312.003 91.8647C311.986 91.5512 312.033 91.2375 312.142 90.9428C312.25 90.6481 312.418 90.3785 312.634 90.1506C312.85 89.9227 313.111 89.7412 313.4 89.6171C313.689 89.4931 314 89.4291 314.315 89.4291H421.313C423.637 91.4676 422.221 94.0518 420.201 94.0518Z" fill="#CCCCCC"/>
<path d="M420.201 106.182H314.446C313.837 106.194 313.246 105.975 312.792 105.569C312.339 105.163 312.056 104.601 312.003 103.995C311.986 103.681 312.033 103.368 312.142 103.073C312.25 102.778 312.418 102.509 312.634 102.281C312.85 102.053 313.111 101.871 313.4 101.747C313.689 101.623 314 101.559 314.315 101.559H421.313C423.637 103.598 422.221 106.182 420.201 106.182Z" fill="#CCCCCC"/>
<path d="M420.201 118.319H314.446C313.837 118.331 313.246 118.112 312.792 117.706C312.339 117.301 312.056 116.738 312.003 116.132C311.986 115.819 312.033 115.505 312.142 115.21C312.25 114.915 312.418 114.646 312.634 114.418C312.85 114.19 313.111 114.009 313.4 113.884C313.689 113.76 314 113.696 314.315 113.696H421.313C423.637 115.735 422.221 118.319 420.201 118.319Z" fill="#CCCCCC"/>
<path d="M420.201 130.45H314.446C313.837 130.462 313.246 130.243 312.792 129.838C312.339 129.432 312.056 128.869 312.003 128.263C311.986 127.95 312.033 127.636 312.142 127.341C312.25 127.046 312.418 126.777 312.634 126.549C312.85 126.321 313.111 126.14 313.4 126.015C313.689 125.891 314 125.827 314.315 125.827H421.313C423.637 127.866 422.221 130.45 420.201 130.45Z" fill="#CCCCCC"/>
<path d="M406.084 0C407.25 0.00133256 408.369 0.464633 409.194 1.28826C410.019 2.11189 410.483 3.22859 410.484 4.39338V18.4522C410.483 19.617 410.019 20.7337 409.194 21.5573C408.369 22.381 407.25 22.8443 406.084 22.8456H328.632C327.465 22.8443 326.347 22.381 325.522 21.5573C324.697 20.7337 324.233 19.617 324.231 18.4522V4.39338C324.233 3.22859 324.697 2.11189 325.522 1.28826C326.347 0.464633 327.465 0.00133256 328.632 0" fill="#71A5FF"/>
<path d="M634.038 290.842H496.737C492.77 290.837 488.967 289.262 486.162 286.462C483.357 283.662 481.779 279.865 481.775 275.904V164.312C481.779 160.352 483.357 156.555 486.162 153.755C488.967 150.955 492.77 149.379 496.737 149.375H634.038C638.005 149.379 641.808 150.955 644.613 153.755C647.418 156.555 648.996 160.352 649 164.312V275.904C648.996 279.865 647.418 283.662 644.613 286.462C641.808 289.262 638.005 290.837 634.038 290.842ZM496.737 151.132C493.237 151.136 489.881 152.526 487.406 154.997C484.931 157.468 483.539 160.818 483.535 164.312V275.904C483.539 279.399 484.931 282.749 487.406 285.22C489.881 287.691 493.237 289.081 496.737 289.085H634.038C637.538 289.081 640.894 287.691 643.369 285.22C645.844 282.749 647.236 279.399 647.24 275.904V164.312C647.236 160.818 645.844 157.468 643.369 154.997C640.894 152.526 637.538 151.136 634.038 151.132H496.737Z" fill="#3F3D56"/>
<path d="M618.432 182.886H549.138C548.529 182.898 547.938 182.679 547.485 182.273C547.031 181.867 546.749 181.305 546.695 180.699C546.678 180.385 546.725 180.072 546.834 179.777C546.943 179.482 547.11 179.213 547.326 178.985C547.543 178.757 547.803 178.575 548.092 178.451C548.381 178.327 548.692 178.263 549.007 178.263H619.544C621.868 180.302 620.452 182.886 618.432 182.886Z" fill="#3F3D56"/>
<path d="M618.432 195.021H549.138C548.529 195.033 547.938 194.814 547.485 194.408C547.031 194.002 546.749 193.439 546.695 192.833C546.678 192.52 546.725 192.206 546.834 191.912C546.943 191.617 547.11 191.347 547.326 191.119C547.543 190.891 547.803 190.71 548.092 190.586C548.381 190.462 548.692 190.398 549.007 190.398H619.544C621.868 192.436 620.452 195.021 618.432 195.021Z" fill="#3F3D56"/>
<path d="M534.158 201.93H513.01C512.32 201.929 511.658 201.655 511.17 201.167C510.681 200.68 510.407 200.019 510.406 199.33V174.415C510.407 173.725 510.681 173.064 511.17 172.577C511.658 172.09 512.32 171.815 513.01 171.815H534.158C534.849 171.816 535.511 172.09 535.999 172.577C536.487 173.065 536.762 173.725 536.763 174.415V199.33C536.762 200.019 536.487 200.68 535.999 201.167C535.511 201.655 534.849 201.929 534.158 201.93Z" fill="#CCCCCC"/>
<path d="M617.771 269.588H596.623C595.932 269.587 595.27 269.313 594.782 268.825C594.294 268.338 594.019 267.677 594.019 266.988V252.617C594.019 251.928 594.294 251.267 594.782 250.779C595.27 250.292 595.932 250.018 596.623 250.017H617.771C618.461 250.018 619.123 250.292 619.611 250.779C620.099 251.267 620.374 251.928 620.375 252.617V266.988C620.374 267.677 620.1 268.338 619.611 268.825C619.123 269.313 618.461 269.587 617.771 269.588Z" fill="#3F3D56"/>
<path d="M618.23 219.866H512.475C511.866 219.878 511.275 219.659 510.822 219.253C510.368 218.847 510.086 218.285 510.032 217.679C510.015 217.365 510.063 217.052 510.171 216.757C510.28 216.462 510.447 216.193 510.664 215.965C510.88 215.737 511.141 215.555 511.43 215.431C511.718 215.307 512.03 215.243 512.344 215.243H619.343C621.667 217.282 620.251 219.866 618.23 219.866Z" fill="#CCCCCC"/>
<path d="M618.23 232.004H512.475C511.866 232.016 511.275 231.797 510.822 231.391C510.368 230.985 510.086 230.423 510.032 229.817C510.015 229.503 510.063 229.19 510.171 228.895C510.28 228.6 510.447 228.331 510.664 228.103C510.88 227.875 511.141 227.693 511.43 227.569C511.718 227.445 512.03 227.381 512.344 227.381H619.343C621.667 229.42 620.251 232.004 618.23 232.004Z" fill="#CCCCCC"/>
<path d="M618.23 244.134H512.475C511.866 244.146 511.275 243.927 510.822 243.521C510.368 243.115 510.086 242.553 510.032 241.947C510.015 241.633 510.063 241.32 510.171 241.025C510.28 240.73 510.447 240.461 510.664 240.233C510.88 240.005 511.141 239.823 511.43 239.699C511.718 239.575 512.03 239.511 512.344 239.511H619.343C621.667 241.55 620.251 244.134 618.23 244.134Z" fill="#CCCCCC"/>
<path d="M562.782 256.271H512.475C511.866 256.284 511.275 256.065 510.822 255.659C510.368 255.253 510.086 254.69 510.032 254.084C510.015 253.771 510.063 253.457 510.171 253.162C510.28 252.868 510.447 252.598 510.664 252.37C510.88 252.142 511.141 251.961 511.43 251.837C511.718 251.713 512.03 251.649 512.344 251.649H563.895C566.219 253.687 564.802 256.271 562.782 256.271Z" fill="#CCCCCC"/>
<path d="M562.782 268.402H512.475C511.866 268.415 511.275 268.196 510.822 267.79C510.368 267.384 510.086 266.821 510.032 266.215C510.015 265.902 510.063 265.588 510.171 265.293C510.28 264.999 510.447 264.729 510.664 264.501C510.88 264.273 511.141 264.092 511.43 263.968C511.718 263.844 512.03 263.78 512.344 263.78H563.895C566.219 265.818 564.802 268.402 562.782 268.402Z" fill="#CCCCCC"/>
<path d="M604.113 160.798H526.662C525.495 160.796 524.376 160.333 523.551 159.509C522.726 158.686 522.262 157.569 522.261 156.404V142.346C522.262 141.181 522.726 140.064 523.551 139.24C524.376 138.417 525.495 137.953 526.662 137.952H604.113C605.28 137.953 606.399 138.417 607.224 139.24C608.049 140.064 608.513 141.181 608.514 142.346V156.404C608.513 157.569 608.049 158.686 607.224 159.509C606.399 160.333 605.28 160.796 604.113 160.798Z" fill="#71A5FF"/>
<path d="M336.21 478H0.880127C0.646701 478 0.422836 477.907 0.257779 477.743C0.0927224 477.578 -4.76837e-06 477.354 -4.76837e-06 477.121C-4.76837e-06 476.888 0.0927224 476.665 0.257779 476.5C0.422836 476.335 0.646701 476.243 0.880127 476.243H336.21C336.444 476.243 336.668 476.335 336.833 476.5C336.998 476.665 337.09 476.888 337.09 477.121C337.09 477.354 336.998 477.578 336.833 477.743C336.668 477.907 336.444 478 336.21 478Z" fill="#3F3D56"/>
<path d="M85.1649 26.1769C88.3083 26.1769 90.8566 23.6328 90.8566 20.4946C90.8566 17.3563 88.3083 14.8123 85.1649 14.8123C82.0214 14.8123 79.4731 17.3563 79.4731 20.4946C79.4731 23.6328 82.0214 26.1769 85.1649 26.1769Z" fill="#F2F2F2"/>
<path d="M85.1649 48.8232C88.3083 48.8232 90.8566 46.2792 90.8566 43.1409C90.8566 40.0027 88.3083 37.4586 85.1649 37.4586C82.0214 37.4586 79.4731 40.0027 79.4731 43.1409C79.4731 46.2792 82.0214 48.8232 85.1649 48.8232Z" fill="#F2F2F2"/>
<path d="M85.1649 71.4696C88.3083 71.4696 90.8566 68.9255 90.8566 65.7873C90.8566 62.649 88.3083 60.105 85.1649 60.105C82.0214 60.105 79.4731 62.649 79.4731 65.7873C79.4731 68.9255 82.0214 71.4696 85.1649 71.4696Z" fill="#F2F2F2"/>
<path d="M85.1649 94.116C88.3083 94.116 90.8566 91.5719 90.8566 88.4337C90.8566 85.2954 88.3083 82.7513 85.1649 82.7513C82.0214 82.7513 79.4731 85.2954 79.4731 88.4337C79.4731 91.5719 82.0214 94.116 85.1649 94.116Z" fill="#F2F2F2"/>
<path d="M108.928 26.1769C112.072 26.1769 114.62 23.6328 114.62 20.4946C114.62 17.3563 112.072 14.8123 108.928 14.8123C105.785 14.8123 103.237 17.3563 103.237 20.4946C103.237 23.6328 105.785 26.1769 108.928 26.1769Z" fill="#F2F2F2"/>
<path d="M108.928 48.8232C112.072 48.8232 114.62 46.2792 114.62 43.1409C114.62 40.0027 112.072 37.4586 108.928 37.4586C105.785 37.4586 103.237 40.0027 103.237 43.1409C103.237 46.2792 105.785 48.8232 108.928 48.8232Z" fill="#F2F2F2"/>
<path d="M108.928 71.4696C112.072 71.4696 114.62 68.9255 114.62 65.7873C114.62 62.649 112.072 60.105 108.928 60.105C105.785 60.105 103.237 62.649 103.237 65.7873C103.237 68.9255 105.785 71.4696 108.928 71.4696Z" fill="#F2F2F2"/>
<path d="M108.928 94.116C112.072 94.116 114.62 91.5719 114.62 88.4337C114.62 85.2954 112.072 82.7513 108.928 82.7513C105.785 82.7513 103.237 85.2954 103.237 88.4337C103.237 91.5719 105.785 94.116 108.928 94.116Z" fill="#F2F2F2"/>
<path d="M132.692 26.1769C135.835 26.1769 138.384 23.6328 138.384 20.4946C138.384 17.3563 135.835 14.8123 132.692 14.8123C129.549 14.8123 127 17.3563 127 20.4946C127 23.6328 129.549 26.1769 132.692 26.1769Z" fill="#F2F2F2"/>
<path d="M132.692 48.8232C135.835 48.8232 138.384 46.2792 138.384 43.1409C138.384 40.0027 135.835 37.4586 132.692 37.4586C129.549 37.4586 127 40.0027 127 43.1409C127 46.2792 129.549 48.8232 132.692 48.8232Z" fill="#F2F2F2"/>
<path d="M132.692 71.4696C135.835 71.4696 138.384 68.9255 138.384 65.7873C138.384 62.649 135.835 60.105 132.692 60.105C129.549 60.105 127 62.649 127 65.7873C127 68.9255 129.549 71.4696 132.692 71.4696Z" fill="#F2F2F2"/>
<path d="M132.692 94.116C135.835 94.116 138.384 91.5719 138.384 88.4337C138.384 85.2954 135.835 82.7513 132.692 82.7513C129.549 82.7513 127 85.2954 127 88.4337C127 91.5719 129.549 94.116 132.692 94.116Z" fill="#F2F2F2"/>
<path d="M156.456 26.1769C159.599 26.1769 162.147 23.6328 162.147 20.4946C162.147 17.3563 159.599 14.8123 156.456 14.8123C153.312 14.8123 150.764 17.3563 150.764 20.4946C150.764 23.6328 153.312 26.1769 156.456 26.1769Z" fill="#F2F2F2"/>
<path d="M156.456 48.8232C159.599 48.8232 162.147 46.2792 162.147 43.1409C162.147 40.0027 159.599 37.4586 156.456 37.4586C153.312 37.4586 150.764 40.0027 150.764 43.1409C150.764 46.2792 153.312 48.8232 156.456 48.8232Z" fill="#F2F2F2"/>
<path d="M156.456 71.4696C159.599 71.4696 162.147 68.9255 162.147 65.7873C162.147 62.649 159.599 60.105 156.456 60.105C153.312 60.105 150.764 62.649 150.764 65.7873C150.764 68.9255 153.312 71.4696 156.456 71.4696Z" fill="#F2F2F2"/>
<path d="M156.456 94.116C159.599 94.116 162.147 91.5719 162.147 88.4337C162.147 85.2954 159.599 82.7513 156.456 82.7513C153.312 82.7513 150.764 85.2954 150.764 88.4337C150.764 91.5719 153.312 94.116 156.456 94.116Z" fill="#F2F2F2"/>
<path d="M180.219 26.1769C183.363 26.1769 185.911 23.6328 185.911 20.4946C185.911 17.3563 183.363 14.8123 180.219 14.8123C177.076 14.8123 174.527 17.3563 174.527 20.4946C174.527 23.6328 177.076 26.1769 180.219 26.1769Z" fill="#F2F2F2"/>
<path d="M180.219 48.8232C183.363 48.8232 185.911 46.2792 185.911 43.1409C185.911 40.0027 183.363 37.4586 180.219 37.4586C177.076 37.4586 174.527 40.0027 174.527 43.1409C174.527 46.2792 177.076 48.8232 180.219 48.8232Z" fill="#F2F2F2"/>
<path d="M180.219 71.4696C183.363 71.4696 185.911 68.9255 185.911 65.7873C185.911 62.649 183.363 60.105 180.219 60.105C177.076 60.105 174.527 62.649 174.527 65.7873C174.527 68.9255 177.076 71.4696 180.219 71.4696Z" fill="#F2F2F2"/>
<path d="M180.219 94.116C183.363 94.116 185.911 91.5719 185.911 88.4337C185.911 85.2954 183.363 82.7513 180.219 82.7513C177.076 82.7513 174.527 85.2954 174.527 88.4337C174.527 91.5719 177.076 94.116 180.219 94.116Z" fill="#F2F2F2"/>
<path d="M203.983 26.1769C207.126 26.1769 209.674 23.6328 209.674 20.4946C209.674 17.3563 207.126 14.8123 203.983 14.8123C200.839 14.8123 198.291 17.3563 198.291 20.4946C198.291 23.6328 200.839 26.1769 203.983 26.1769Z" fill="#F2F2F2"/>
<path d="M203.983 48.8232C207.126 48.8232 209.674 46.2792 209.674 43.1409C209.674 40.0027 207.126 37.4586 203.983 37.4586C200.839 37.4586 198.291 40.0027 198.291 43.1409C198.291 46.2792 200.839 48.8232 203.983 48.8232Z" fill="#F2F2F2"/>
<path d="M203.983 71.4696C207.126 71.4696 209.674 68.9255 209.674 65.7873C209.674 62.649 207.126 60.105 203.983 60.105C200.839 60.105 198.291 62.649 198.291 65.7873C198.291 68.9255 200.839 71.4696 203.983 71.4696Z" fill="#F2F2F2"/>
<path d="M203.983 94.116C207.126 94.116 209.674 91.5719 209.674 88.4337C209.674 85.2954 207.126 82.7513 203.983 82.7513C200.839 82.7513 198.291 85.2954 198.291 88.4337C198.291 91.5719 200.839 94.116 203.983 94.116Z" fill="#F2F2F2"/>
<path d="M529.631 340.743C532.775 340.743 535.323 338.199 535.323 335.061C535.323 331.922 532.775 329.378 529.631 329.378C526.488 329.378 523.94 331.922 523.94 335.061C523.94 338.199 526.488 340.743 529.631 340.743Z" fill="#F2F2F2"/>
<path d="M529.631 363.389C532.775 363.389 535.323 360.845 535.323 357.707C535.323 354.569 532.775 352.025 529.631 352.025C526.488 352.025 523.94 354.569 523.94 357.707C523.94 360.845 526.488 363.389 529.631 363.389Z" fill="#F2F2F2"/>
<path d="M529.631 386.036C532.775 386.036 535.323 383.492 535.323 380.353C535.323 377.215 532.775 374.671 529.631 374.671C526.488 374.671 523.94 377.215 523.94 380.353C523.94 383.492 526.488 386.036 529.631 386.036Z" fill="#F2F2F2"/>
<path d="M553.395 340.743C556.538 340.743 559.087 338.199 559.087 335.061C559.087 331.922 556.538 329.378 553.395 329.378C550.251 329.378 547.703 331.922 547.703 335.061C547.703 338.199 550.251 340.743 553.395 340.743Z" fill="#F2F2F2"/>
<path d="M553.395 363.389C556.538 363.389 559.087 360.845 559.087 357.707C559.087 354.569 556.538 352.025 553.395 352.025C550.251 352.025 547.703 354.569 547.703 357.707C547.703 360.845 550.251 363.389 553.395 363.389Z" fill="#F2F2F2"/>
<path d="M553.395 386.036C556.538 386.036 559.087 383.492 559.087 380.353C559.087 377.215 556.538 374.671 553.395 374.671C550.251 374.671 547.703 377.215 547.703 380.353C547.703 383.492 550.251 386.036 553.395 386.036Z" fill="#F2F2F2"/>
<path d="M577.158 340.743C580.302 340.743 582.85 338.199 582.85 335.061C582.85 331.922 580.302 329.378 577.158 329.378C574.015 329.378 571.467 331.922 571.467 335.061C571.467 338.199 574.015 340.743 577.158 340.743Z" fill="#F2F2F2"/>
<path d="M577.158 363.389C580.302 363.389 582.85 360.845 582.85 357.707C582.85 354.569 580.302 352.025 577.158 352.025C574.015 352.025 571.467 354.569 571.467 357.707C571.467 360.845 574.015 363.389 577.158 363.389Z" fill="#F2F2F2"/>
<path d="M577.158 386.036C580.302 386.036 582.85 383.492 582.85 380.353C582.85 377.215 580.302 374.671 577.158 374.671C574.015 374.671 571.467 377.215 571.467 380.353C571.467 383.492 574.015 386.036 577.158 386.036Z" fill="#F2F2F2"/>
<path d="M600.922 340.743C604.065 340.743 606.614 338.199 606.614 335.061C606.614 331.922 604.065 329.378 600.922 329.378C597.779 329.378 595.23 331.922 595.23 335.061C595.23 338.199 597.779 340.743 600.922 340.743Z" fill="#F2F2F2"/>
<path d="M600.922 363.389C604.065 363.389 606.614 360.845 606.614 357.707C606.614 354.569 604.065 352.025 600.922 352.025C597.779 352.025 595.23 354.569 595.23 357.707C595.23 360.845 597.779 363.389 600.922 363.389Z" fill="#F2F2F2"/>
<path d="M600.922 386.036C604.065 386.036 606.614 383.492 606.614 380.353C606.614 377.215 604.065 374.671 600.922 374.671C597.779 374.671 595.23 377.215 595.23 380.353C595.23 383.492 597.779 386.036 600.922 386.036Z" fill="#F2F2F2"/>
</g>
<defs>
<clipPath id="clip0_8_198">
<rect width="649" height="478" fill="white"/>
</clipPath>
</defs>
</svg>
